<svg xmlns="http://www.w3.org/2000/svg" width="1024" height="1024" viewBox="0 0 1024 1024">
<g>
<path d="M 735.75 777.50 C726.66,779.64 297.64,779.59 288.79,777.45 C274.20,773.91 258.47,761.86 252.20,749.42 C251.37,747.77 250.65,746.52 250.03,745.22 C245.98,736.83 245.98,726.48 246.00,591.45 C246.00,581.83 246.00,571.57 246.00,560.63 L 246.00 390.05 L 243.15 388.58 C239.52,386.70 234.15,380.61 232.37,376.35 C231.28,373.74 231.00,364.44 230.98,331.28 C230.97,292.99 230.80,288.87 229.00,282.00 C224.82,266.06 226.86,250.59 234.63,239.27 C242.91,227.20 250.26,223.15 278.88,214.88 C290.22,211.60 302.20,208.07 305.50,207.03 C312.19,204.92 326.37,200.74 387.00,183.00 C439.99,167.49 497.35,150.52 507.00,147.50 C511.12,146.21 521.03,143.25 529.00,140.94 C536.97,138.62 556.78,132.78 573.00,127.96 C589.22,123.14 618.03,114.62 637.00,109.03 C655.97,103.44 677.33,97.08 684.46,94.90 C691.59,92.72 700.59,90.67 704.46,90.35 C721.57,88.90 738.98,98.41 747.26,113.70 C750.09,118.93 762.00,159.03 762.00,163.32 C762.00,164.63 760.98,167.23 759.74,169.10 C757.79,172.04 756.12,172.93 747.49,175.68 C736.11,179.31 639.18,208.18 592.00,221.99 C574.67,227.07 553.08,233.46 544.00,236.21 C534.92,238.95 516.03,244.55 502.00,248.65 C487.98,252.74 468.40,258.51 458.50,261.47 C448.60,264.42 431.05,269.61 419.50,272.98 C407.95,276.36 395.80,279.96 392.50,280.98 C389.20,282.00 376.83,285.62 365.00,289.04 C353.17,292.46 343.13,295.59 342.67,296.00 C342.22,296.42 343.28,298.38 345.03,300.38 L 348.21 304.00 L 560.52 304.00 C677.29,304.00 773.56,304.28 774.46,304.62 C774.92,304.80 775.33,304.95 775.70,305.17 C779.00,307.15 779.00,314.63 779.00,392.65 L 779.00 477.54 L 801.67 490.52 C814.14,497.66 825.64,504.57 827.22,505.88 C833.17,510.80 835.96,520.29 833.89,528.54 C831.97,536.14 826.49,540.61 801.50,554.96 L 779.50 567.59 L 779.00 651.04 L 778.50 734.50 L 776.17 740.96 C772.82,750.24 769.38,755.65 762.33,762.71 C755.30,769.74 745.48,775.20 735.75,777.50 ZM 552.00 942.36 C465.60,950.74 381.05,931.69 301.52,885.92 C238.67,849.75 178.29,788.73 143.24,725.97 C127.95,698.60 119.48,679.42 109.66,650.00 C83.42,571.37 80.03,492.09 99.45,411.50 C117.22,337.80 161.21,261.14 217.14,206.44 C251.12,173.21 284.86,149.59 329.00,128.16 C371.83,107.35 412.05,95.26 459.50,88.95 C490.07,84.87 537.55,85.15 570.50,89.60 C584.24,91.45 606.21,95.86 607.37,96.99 C607.86,97.47 604.97,98.80 600.87,100.01 C596.82,101.19 588.33,103.79 582.00,105.77 C572.53,108.74 568.92,109.39 561.55,109.44 C552.99,109.50 552.58,109.60 552.04,111.87 C551.46,114.31 549.63,115.22 539.25,118.27 L 534.00 119.82 L 534.00 113.93 C534.00,107.02 533.49,106.70 522.97,107.20 L 516.50 107.50 L 516.20 113.33 C515.85,120.10 516.96,122.00 521.29,122.00 C522.96,122.00 524.10,122.24 523.81,122.52 C523.52,122.81 513.66,125.90 501.89,129.39 C486.29,134.01 478.06,135.93 471.50,136.47 C443.66,138.74 404.32,148.34 375.00,160.01 C362.74,164.89 344.03,173.66 342.04,175.46 C341.19,176.23 334.20,178.73 326.50,181.02 C318.80,183.31 308.26,186.49 303.07,188.08 C297.89,189.68 293.39,190.70 293.07,190.35 C292.76,190.01 293.08,189.52 293.79,189.27 C296.23,188.40 301.00,183.82 301.00,182.34 C301.00,180.44 295.22,172.00 293.91,172.00 C292.37,172.00 285.81,175.63 282.62,178.25 C279.20,181.06 279.54,183.27 284.22,188.60 C285.90,190.51 287.09,192.22 286.88,192.41 C286.67,192.60 282.81,193.88 278.30,195.25 L 270.10 197.74 L 267.88 195.37 C266.65,194.07 264.84,193.00 263.84,193.00 C262.84,193.00 259.16,195.43 255.65,198.41 C252.14,201.39 247.30,204.82 244.89,206.05 C231.24,212.99 221.56,222.46 214.87,235.43 C212.58,239.87 208.75,245.62 206.35,248.21 C203.96,250.80 202.00,253.35 202.00,253.88 C202.00,254.41 203.06,256.12 204.35,257.67 C206.26,259.97 206.82,262.10 207.31,269.00 C207.65,273.67 208.63,280.15 209.49,283.40 C210.76,288.21 210.82,289.60 209.78,291.01 C204.56,298.02 191.45,318.01 187.49,325.00 C175.06,346.94 161.59,376.83 155.51,396.00 C154.03,400.67 152.20,406.43 151.45,408.80 C150.23,412.64 150.27,413.27 151.80,414.80 C153.69,416.67 182.29,424.49 184.36,423.69 C185.07,423.42 186.47,420.12 187.46,416.35 C191.69,400.39 209.66,357.00 212.04,357.00 C212.42,357.00 212.94,361.61 213.20,367.25 C213.57,375.65 214.15,378.61 216.41,383.63 L 219.16 389.76 L 217.20 393.63 C211.57,404.69 201.04,442.57 197.60,464.08 C193.54,489.53 193.00,528.80 196.39,553.00 C200.99,585.85 210.17,616.79 224.40,647.37 L 229.00 657.25 L 229.00 676.62 C229.00,687.28 228.66,695.99 228.25,695.97 C224.90,695.83 205.04,657.34 196.05,633.58 C191.66,621.98 186.00,604.38 186.00,602.33 C186.00,599.72 183.30,599.90 169.19,603.45 C149.84,608.33 149.65,608.43 150.34,613.50 C151.15,619.35 159.18,643.70 165.51,659.49 C171.71,674.92 183.03,697.63 192.22,713.04 C217.92,756.14 256.88,798.36 296.75,826.32 C299.64,828.34 304.25,831.58 306.99,833.50 C309.73,835.42 312.64,837.00 313.45,837.00 C314.26,837.00 316.13,834.86 317.61,832.25 C319.08,829.64 323.60,821.96 327.65,815.19 C331.69,808.42 335.00,802.27 335.00,801.54 C335.00,800.80 333.61,799.32 331.92,798.25 L 328.84 796.30 L 347.81 795.58 L 366.79 794.87 L 375.64 799.31 C410.45,816.76 453.59,828.21 495.70,831.18 C544.83,834.65 600.67,823.06 649.71,799.22 L 657.92 795.23 L 676.96 795.07 C687.43,794.98 696.00,795.12 696.00,795.37 C696.00,795.63 694.42,796.81 692.50,798.00 C690.58,799.19 689.00,800.69 689.01,801.33 C689.01,801.97 692.57,808.58 696.92,816.00 C697.73,817.40 698.50,818.71 699.22,819.95 C707.09,833.41 709.22,837.07 711.32,837.05 C712.29,837.04 713.26,836.24 714.79,835.26 C743.95,816.55 779.16,784.75 801.02,757.38 C834.46,715.52 857.44,671.93 871.07,624.50 C875.05,610.64 875.07,610.48 873.11,608.89 C871.54,607.61 842.83,599.96 839.75,599.99 C839.34,600.00 839.00,600.62 839.00,601.37 C839.00,603.50 828.70,633.43 824.51,643.50 C819.41,655.71 808.97,676.47 802.13,687.96 L 796.50 697.43 L 795.96 657.25 L 801.47 645.06 C811.58,622.71 821.74,591.16 825.02,571.92 L 826.15 565.34 L 833.72 560.42 C837.89,557.71 843.03,553.32 845.15,550.66 L 845.27 550.50 C846.94,548.41 847.99,547.09 848.49,547.28 C849.35,547.59 848.61,552.30 846.61,565.08 L 846.52 565.64 C845.16,574.34 844.38,581.74 844.77,582.10 C846.20,583.37 876.68,590.34 878.23,589.74 C880.19,588.99 881.48,583.11 883.99,563.55 C889.38,521.60 888.53,485.08 881.21,444.50 C879.67,435.97 879.11,434.46 877.40,434.21 C875.59,433.94 857.37,438.23 847.65,441.21 C843.84,442.37 843.81,442.42 844.46,446.44 C848.38,470.82 851.56,499.77 850.45,500.88 C850.18,501.16 849.22,500.28 848.32,498.94 C845.72,495.06 837.13,487.20 832.89,484.82 C829.59,482.96 829.00,482.13 829.00,479.30 C829.00,473.74 825.10,451.22 821.97,438.71 C817.36,420.30 810.38,399.91 802.85,382.91 L 795.96 367.31 L 796.23 347.91 L 796.50 328.50 L 799.10 332.50 C812.68,353.43 828.75,388.91 835.64,413.21 C837.08,418.32 838.65,422.99 839.13,423.59 C839.73,424.36 844.70,423.44 855.79,420.53 C864.48,418.24 872.18,416.01 872.89,415.57 C874.40,414.64 874.27,413.93 870.05,400.06 C864.08,380.47 851.84,351.69 841.74,333.51 C828.28,309.26 801.79,271.00 798.47,271.00 C797.68,271.00 793.09,274.49 788.27,278.75 L 779.50 286.50 L 757.86 286.00 L 736.22 285.50 L 727.36 276.99 C710.51,260.80 686.01,243.08 662.58,230.11 C656.41,226.69 652.28,223.85 653.08,223.58 C653.86,223.31 659.98,221.45 666.69,219.46 L 678.87 215.84 L 683.69 218.62 C691.43,223.10 709.64,235.61 718.57,242.58 C731.05,252.33 751.44,270.48 755.57,275.52 C757.59,277.99 759.52,280.00 759.87,280.00 C760.71,279.99 781.97,261.41 783.63,259.22 C786.40,255.57 785.15,253.55 772.25,240.88 C758.72,227.59 747.71,218.13 734.23,208.19 L 725.96 202.10 L 733.23 199.99 C737.23,198.83 742.53,197.23 745.00,196.45 C747.47,195.66 752.20,194.31 755.50,193.45 C763.21,191.45 768.93,188.07 773.38,182.87 L 776.93 178.72 L 785.71 186.08 C827.29,220.89 863.32,267.39 891.93,323.18 C922.31,382.44 937.45,445.86 937.35,513.50 C937.26,569.55 927.42,620.54 906.44,673.61 C875.13,752.82 819.08,822.18 747.04,870.88 C727.89,883.82 717.10,890.06 695.45,900.72 C648.18,924.00 601.46,937.56 552.00,942.36 ZM 291.76 755.52 C295.60,756.58 337.56,756.80 513.50,756.66 L 730.50 756.50 L 736.61 753.68 C743.95,750.28 751.06,743.34 754.20,736.50 L 756.50 731.50 L 756.77 657.73 C757.02,592.42 756.88,583.89 755.53,583.37 C753.89,582.74 747.40,585.87 737.01,592.30 C727.51,598.17 708.64,608.82 700.00,613.19 C691.58,617.45 686.19,618.04 678.94,615.48 C672.33,613.15 668.03,609.30 665.13,603.11 L 662.50 597.50 L 662.20 551.75 C661.98,516.93 661.62,506.00 660.70,506.01 C659.55,506.02 651.95,512.14 643.50,519.88 C641.30,521.89 635.67,526.86 631.00,530.91 C626.33,534.97 619.80,540.82 616.50,543.91 C613.20,547.00 608.70,551.06 606.50,552.93 C597.44,560.63 588.08,569.34 587.65,570.46 C587.40,571.12 588.49,577.25 590.07,584.08 C591.66,590.91 594.52,603.77 596.43,612.66 C598.34,621.55 600.58,631.45 601.41,634.66 C602.24,637.87 604.33,647.25 606.06,655.50 C607.79,663.75 609.67,672.65 610.24,675.28 C610.81,677.91 610.96,680.37 610.58,680.75 C609.84,681.49 606.18,679.57 586.84,668.32 C570.31,658.70 569.38,658.15 539.54,640.42 C525.25,631.94 512.80,625.00 511.87,625.00 C510.93,625.00 505.51,627.77 499.83,631.16 C488.60,637.86 472.98,647.35 469.00,649.90 C467.62,650.78 464.25,652.65 461.50,654.05 C455.50,657.12 436.72,668.26 425.10,675.66 C412.36,683.77 411.82,683.33 415.44,667.72 C416.87,661.55 419.22,651.33 420.65,645.00 C422.09,638.67 424.06,630.35 425.03,626.50 C426.01,622.65 427.12,617.47 427.51,615.00 C427.90,612.53 429.33,605.78 430.68,600.00 C432.04,594.22 433.55,587.47 434.04,585.00 C434.52,582.53 435.57,578.15 436.37,575.27 L 437.81 570.04 L 434.15 566.87 C432.14,565.12 427.12,560.64 423.00,556.92 C409.23,544.49 392.55,529.64 375.95,515.04 C355.81,497.34 353.50,495.16 354.17,494.50 C354.46,494.21 361.18,493.30 369.10,492.48 C377.02,491.66 391.60,490.11 401.50,489.04 C411.40,487.97 428.27,486.14 439.00,484.98 C469.27,481.72 465.60,483.37 471.28,470.49 C473.95,464.44 479.53,451.62 483.69,442.00 C487.85,432.38 492.36,422.09 493.71,419.14 C500.79,403.65 502.97,397.60 501.74,396.82 C501.06,396.38 447.94,396.13 383.70,396.26 L 266.91 396.50 L 266.97 561.95 C267.01,675.67 267.37,728.67 268.10,731.45 C271.04,742.63 280.72,752.47 291.76,755.52 ZM 438.33 644.75 C437.54,648.01 439.32,647.61 446.89,642.82 C450.53,640.52 457.55,636.31 462.50,633.46 C467.45,630.62 480.50,623.00 491.50,616.53 C509.89,605.71 511.73,604.85 514.30,605.81 C516.99,606.82 522.94,610.29 565.78,635.80 C576.38,642.11 585.31,647.02 585.63,646.71 C585.94,646.39 585.53,643.07 584.71,639.32 C581.06,622.61 574.78,594.22 571.58,580.00 L 568.10 564.50 L 573.30 559.45 C578.14,554.75 620.51,516.94 627.93,510.71 C629.76,509.17 630.95,507.62 630.58,507.25 C630.21,506.88 611.18,504.53 588.29,502.04 L 546.66 497.50 L 539.75 482.00 C533.95,469.01 523.91,445.99 514.78,424.75 C513.65,422.14 512.45,420.00 512.10,420.00 C511.75,420.00 507.56,429.11 502.79,440.25 C493.85,461.11 481.49,489.21 478.93,494.50 C477.66,497.12 476.79,497.58 471.99,498.18 C457.30,500.00 399.97,506.00 397.23,506.00 C395.52,506.00 393.87,506.40 393.57,506.89 C393.26,507.38 399.87,513.78 408.26,521.11 C437.47,546.66 454.08,561.70 455.35,563.75 C455.99,564.79 453.24,578.14 441.89,629.00 C440.24,636.42 438.64,643.51 438.33,644.75 ZM 633.50 489.53 C657.60,492.24 660.93,492.39 661.50,490.75 C661.74,490.06 662.10,480.04 662.29,468.47 C662.62,448.59 662.77,447.18 665.06,442.59 C672.03,428.64 688.41,424.87 703.73,433.71 C707.50,435.88 713.49,439.09 717.04,440.85 C720.59,442.61 728.45,447.17 734.50,451.00 C748.74,460.02 753.91,462.49 755.38,461.01 C756.81,459.58 756.88,399.45 755.46,398.11 C753.96,396.70 521.00,395.50 521.00,396.90 C521.00,397.52 521.44,398.81 521.98,399.76 C522.53,400.72 525.95,408.48 529.59,417.00 C540.40,442.30 541.61,445.13 545.27,453.50 C547.19,457.90 549.88,463.98 551.26,467.00 C552.63,470.02 554.65,474.56 555.75,477.08 C557.66,481.47 557.92,481.67 562.12,481.81 C564.53,481.89 569.42,482.39 573.00,482.93 C576.58,483.46 587.15,484.66 596.50,485.59 C605.85,486.51 622.50,488.29 633.50,489.53 ZM 685.62 594.71 C685.93,594.93 686.18,595.12 686.47,595.24 C687.98,595.88 690.35,594.50 706.09,585.28 L 706.57 584.99 C714.08,580.60 720.37,577.00 720.56,577.00 C720.74,577.00 730.03,571.68 741.20,565.17 C772.51,546.94 793.61,534.74 803.75,529.00 C808.84,526.13 813.00,523.36 813.00,522.84 C813.00,521.72 807.97,518.62 780.50,502.80 C768.95,496.14 748.25,484.17 734.50,476.18 C690.32,450.53 689.07,449.85 686.74,450.18 L 684.50 450.50 L 684.24 522.00 C684.00,587.34 684.12,593.60 685.62,594.71 ZM 254.68 375.50 C258.98,376.94 332.84,375.88 335.51,374.34 C336.62,373.71 338.42,372.20 339.51,370.99 C341.34,368.97 341.53,367.08 341.84,347.77 C342.23,323.70 341.78,321.57 334.73,313.91 C332.40,311.39 326.67,304.89 322.00,299.47 C317.33,294.05 311.48,287.30 309.00,284.46 C306.52,281.63 301.80,276.21 298.50,272.42 C288.36,260.78 284.75,256.49 280.21,254.91 C277.56,253.99 274.58,254.00 269.80,254.00 C269.47,254.00 269.13,254.00 268.78,254.00 C256.90,254.00 252.81,255.51 249.50,261.11 C247.57,264.38 247.50,266.30 247.50,316.68 C247.50,368.07 247.53,368.90 249.59,371.68 C250.75,373.23 253.03,374.95 254.68,375.50 ZM 522.25 895.91 C524.65,898.42 555.69,895.59 581.00,890.54 C610.20,884.72 644.63,873.01 672.60,859.38 C688.61,851.59 693.00,848.78 693.00,846.36 C693.00,845.53 691.80,842.75 690.33,840.18 C685.84,832.31 675.79,815.66 673.79,812.78 L 671.91 810.07 L 659.31 816.50 C643.29,824.68 635.23,828.04 616.00,834.54 C587.52,844.17 560.70,849.53 530.75,851.57 L 521.00 852.24 L 521.00 873.42 C521.00,889.00 521.33,894.95 522.25,895.91 ZM 477.00 895.48 C492.35,897.17 500.32,897.28 501.80,895.80 C502.66,894.94 503.00,888.57 503.00,873.45 L 503.00 852.31 L 488.52 851.10 C480.55,850.44 468.74,849.01 462.27,847.92 C426.05,841.83 400.81,833.69 363.56,816.08 C357.56,813.24 352.12,811.12 351.47,811.37 C350.82,811.62 348.14,815.58 345.51,820.16 C342.87,824.75 339.01,831.42 336.93,835.00 C330.37,846.23 330.18,846.92 333.04,849.24 C337.24,852.67 368.75,867.54 384.35,873.47 C411.81,883.90 446.33,892.10 477.00,895.48 ZM 145.06 588.11 C146.42,590.65 147.19,590.58 164.75,586.38 C174.19,584.12 178.22,583.46 179.52,581.23 C180.47,579.61 179.98,577.15 179.09,572.66 C178.93,571.84 178.76,570.96 178.58,570.00 C172.32,537.05 172.35,492.48 178.66,453.20 C179.63,447.11 179.94,442.57 179.40,442.08 C178.91,441.63 171.42,439.52 162.76,437.41 C151.19,434.59 146.73,433.87 145.91,434.69 C144.37,436.23 142.56,445.49 139.86,465.50 C136.81,488.20 136.55,533.72 139.35,555.50 C141.70,573.77 143.80,585.76 145.06,588.11 ZM 671.94 164.70 C680.95,170.58 685.07,172.73 686.50,172.30 C687.60,171.97 695.47,169.59 704.00,167.01 C712.53,164.43 722.54,161.47 726.25,160.42 C729.97,159.38 732.86,158.09 732.69,157.56 C732.51,157.03 719.36,148.30 703.46,138.17 L 674.55 119.75 L 662.53 123.28 C633.02,131.94 625.10,134.50 625.78,135.18 C626.18,135.58 631.68,139.12 638.01,143.05 C651.75,151.58 655.55,154.01 671.94,164.70 ZM 564.50 184.90 C578.25,193.70 590.17,200.71 591.00,200.47 C606.34,196.14 636.72,186.68 637.37,186.03 C638.23,185.17 631.83,180.77 609.00,166.52 C602.67,162.57 593.86,157.01 589.41,154.17 C584.66,151.14 580.17,149.00 578.55,149.00 C577.03,149.00 569.87,150.79 562.64,152.97 C555.41,155.16 545.01,158.25 539.53,159.85 L 529.56 162.75 L 534.53 165.82 C537.26,167.51 550.75,176.09 564.50,184.90 ZM 555.73 377.40 C556.06,377.73 567.69,378.00 581.58,378.00 L 606.82 378.00 L 616.29 367.25 C621.50,361.34 631.90,349.52 639.41,341.00 L 653.07 325.50 L 600.50 324.95 L 597.50 328.69 C595.85,330.74 585.64,342.41 574.82,354.61 C563.99,366.82 555.40,377.07 555.73,377.40 ZM 456.51 377.01 C456.88,377.62 466.65,378.00 481.86,378.00 L 506.60 378.00 L 516.09 367.25 C521.31,361.34 530.47,350.88 536.45,344.00 C542.42,337.12 548.68,330.04 550.35,328.25 L 553.39 325.00 L 500.50 325.07 L 490.00 337.15 C484.23,343.79 476.18,353.11 472.12,357.86 C468.06,362.61 462.75,368.64 460.32,371.26 C457.89,373.88 456.17,376.47 456.51,377.01 ZM 485.50 222.99 C490.45,226.24 494.69,228.92 494.92,228.95 C495.55,229.03 542.39,214.87 543.28,214.32 C543.71,214.06 540.33,211.49 535.78,208.61 C517.64,197.14 496.22,183.55 491.27,180.36 C488.39,178.51 485.10,177.00 483.97,177.00 C482.84,177.00 472.12,179.93 460.15,183.50 C448.18,187.07 437.85,190.00 437.19,190.00 C436.54,190.00 436.01,190.34 436.02,190.75 C436.03,191.39 448.99,199.86 471.24,213.80 C474.13,215.61 480.55,219.75 485.50,222.99 ZM 378.00 242.93 C389.83,250.60 400.17,256.72 401.00,256.53 C404.48,255.71 443.99,243.96 446.60,242.96 L 449.46 241.88 L 441.27 236.69 C436.77,233.83 431.15,230.31 428.79,228.85 C426.43,227.39 417.08,221.44 408.00,215.62 C398.92,209.80 390.62,205.03 389.54,205.02 C386.97,204.99 341.00,218.26 341.00,219.03 C341.00,219.35 344.49,221.73 348.75,224.30 C353.01,226.88 366.17,235.26 378.00,242.93 ZM 656.60 377.16 C656.88,377.62 668.24,378.00 681.84,378.00 L 706.57 378.00 L 728.04 353.79 C739.84,340.48 750.32,328.55 751.32,327.29 L 753.15 325.00 L 700.50 325.16 L 691.82 335.33 C687.05,340.92 677.06,352.43 669.61,360.91 C662.17,369.38 656.31,376.69 656.60,377.16 ZM 356.65 377.25 C356.91,377.66 368.30,378.00 381.97,378.00 L 406.81 378.00 L 421.70 361.25 C429.89,352.04 440.30,340.23 444.83,335.00 L 453.07 325.50 L 427.28 325.22 L 401.50 324.94 L 397.50 329.26 C395.30,331.63 389.61,338.06 384.86,343.54 C380.11,349.02 371.72,358.67 366.20,365.00 C360.69,371.32 356.40,376.83 356.65,377.25 ZM 108.65 520.17 C109.86,521.50 111.75,522.00 115.60,522.00 C122.24,522.00 124.00,519.95 124.00,512.21 C124.00,503.97 123.11,503.00 115.50,503.00 C107.83,503.00 107.00,503.94 107.00,512.61 C107.00,516.54 107.52,518.92 108.65,520.17 ZM 110.56 555.78 C111.84,557.61 113.07,558.00 117.49,558.00 C125.05,558.00 126.35,556.47 125.51,548.60 C124.91,543.04 124.71,540.70 123.45,539.71 C122.54,539.00 121.07,539.00 118.47,539.00 C118.32,539.00 118.17,539.00 118.01,539.00 C109.19,539.00 109.00,539.17 109.00,546.88 C109.00,551.30 109.53,554.31 110.56,555.78 ZM 877.64 380.75 C879.31,383.42 880.20,383.49 886.26,381.43 C893.42,378.99 893.75,378.10 890.53,369.89 C889.01,366.02 887.11,362.59 886.31,362.29 C884.34,361.53 877.71,363.60 874.96,365.83 C872.73,367.64 872.73,367.66 874.47,373.07 C875.44,376.06 876.86,379.51 877.64,380.75 ZM 110.20 484.80 C111.80,486.40 122.47,486.36 123.74,484.75 C125.27,482.81 126.15,469.88 124.86,468.33 C124.15,467.48 121.45,467.00 117.35,467.00 C111.40,467.00 110.88,467.18 109.98,469.57 C108.61,473.16 108.76,483.36 110.20,484.80 ZM 901.09 556.35 C904.00,558.39 912.29,558.56 913.90,556.62 C914.54,555.85 915.33,552.26 915.67,548.64 C916.48,539.97 915.65,539.00 907.48,539.00 C900.27,539.00 900.20,539.08 899.31,548.59 C898.79,554.20 898.93,554.84 901.09,556.35 ZM 889.61 414.69 C891.75,416.84 891.89,416.85 896.98,415.22 C903.97,412.99 904.54,411.59 901.93,403.01 C899.99,396.62 899.57,396.00 897.15,396.01 C893.23,396.01 887.38,397.83 886.03,399.47 C884.33,401.51 886.76,411.83 889.61,414.69 ZM 896.04 448.59 C896.81,450.62 897.62,451.00 901.23,450.99 C912.04,450.95 912.88,449.26 909.47,434.25 C909.05,432.41 908.28,432.00 905.23,432.01 C903.18,432.01 899.76,432.49 897.63,433.09 L 893.76 434.16 L 894.44 440.17 C894.81,443.48 895.53,447.27 896.04,448.59 ZM 901.15 484.68 C902.71,486.56 913.38,486.45 914.98,484.52 C916.30,482.94 915.57,470.54 914.02,468.02 C913.42,467.06 911.57,466.85 907.17,467.25 C903.85,467.55 900.60,468.13 899.94,468.54 C898.47,469.44 899.46,482.64 901.15,484.68 ZM 783.50 233.53 C789.34,238.75 789.57,238.84 792.00,237.32 C794.60,235.69 797.33,232.76 799.07,229.74 C799.90,228.30 799.13,226.96 794.90,222.49 C792.04,219.47 789.06,217.00 788.26,217.00 C785.80,217.00 781.49,220.68 779.45,224.52 L 777.50 228.18 ZM 124.20 627.38 C125.05,628.96 125.98,629.16 130.07,628.68 C136.17,627.96 139.00,626.48 139.00,624.01 C139.00,621.06 136.13,610.73 135.00,609.60 C133.86,608.46 123.29,610.31 121.67,611.93 C120.63,612.97 122.46,624.12 124.20,627.38 ZM 127.59 415.17 C130.29,416.08 132.95,416.73 133.50,416.61 C135.21,416.23 138.04,409.43 138.66,404.20 C139.19,399.71 139.02,399.08 136.96,397.98 C135.70,397.30 132.39,396.69 129.61,396.63 L 124.55 396.50 L 122.57 403.32 C120.18,411.55 120.73,412.84 127.59,415.17 ZM 169.50 318.35 C171.15,319.23 173.17,319.84 173.98,319.71 C175.51,319.47 182.83,308.47 182.94,306.26 C183.04,304.29 174.99,299.00 171.90,299.00 C169.53,299.00 168.55,299.93 165.55,305.05 C163.60,308.38 162.00,311.45 162.00,311.88 C162.00,313.02 166.06,316.52 169.50,318.35 ZM 899.69 592.98 C903.42,594.10 906.21,594.15 907.82,593.13 C909.43,592.11 910.94,585.98 910.98,580.36 C911.00,575.65 910.53,575.31 902.53,574.38 L 897.24 573.75 L 896.17 577.13 C895.59,578.98 894.82,582.55 894.47,585.06 C893.76,590.09 894.68,591.48 899.69,592.98 ZM 151.70 348.41 C154.34,349.78 156.80,350.93 157.18,350.95 C158.33,351.03 161.38,346.61 163.90,341.22 C166.75,335.13 166.16,333.85 159.13,330.84 C155.29,329.20 154.45,329.13 152.60,330.34 C150.13,331.96 145.54,342.35 146.35,344.47 C146.65,345.26 149.06,347.04 151.70,348.41 ZM 865.97 350.04 C866.81,350.54 867.56,350.95 867.62,350.97 C867.69,350.99 869.82,350.08 872.36,348.96 C879.22,345.92 879.72,344.22 876.04,336.43 C874.35,332.85 872.34,329.69 871.58,329.39 C869.78,328.70 860.08,333.63 859.31,335.63 C858.60,337.49 863.81,348.78 865.97,350.04 ZM 827.08 285.25 C829.52,288.69 831.90,291.00 833.00,291.00 C835.30,291.00 843.39,284.93 843.78,282.91 C843.94,282.09 842.23,278.85 839.98,275.71 C836.87,271.37 835.29,270.00 833.39,270.00 C830.42,270.00 823.00,275.65 823.00,277.92 C823.00,278.79 824.84,282.09 827.08,285.25 ZM 116.13 592.25 C117.20,594.24 119.85,594.45 125.24,592.95 C130.09,591.60 131.05,589.68 129.93,583.48 C128.83,577.39 128.54,575.06 127.31,574.32 C126.55,573.87 125.44,574.01 123.56,574.24 C123.24,574.28 122.90,574.32 122.53,574.37 C115.99,575.14 114.31,575.74 113.61,577.57 C112.97,579.24 114.77,589.70 116.13,592.25 ZM 902.57 520.43 C904.61,522.47 914.26,522.59 915.92,520.59 C916.65,519.71 916.98,516.27 916.79,511.34 L 916.50 503.50 L 910.78 503.20 C902.06,502.75 901.00,503.69 901.00,511.96 C901.00,516.90 901.45,519.30 902.57,520.43 ZM 138.61 381.44 C140.75,382.23 143.18,382.80 144.00,382.69 C145.76,382.47 149.93,374.19 150.71,369.38 C151.23,366.18 151.05,365.95 146.44,363.97 C139.53,361.01 137.96,361.56 134.81,368.00 C130.51,376.78 131.04,378.65 138.61,381.44 ZM 758.13 210.91 C760.95,213.16 763.79,215.00 764.43,215.00 C765.83,215.00 771.31,209.38 772.86,206.36 C774.20,203.73 772.17,200.77 766.14,196.60 C761.40,193.31 759.25,193.67 755.67,198.36 C751.32,204.08 751.64,205.75 758.13,210.91 ZM 890.00 627.69 C894.64,629.27 898.51,629.29 899.80,627.74 C901.19,626.07 903.95,614.02 903.32,612.39 C902.60,610.51 892.22,608.37 890.16,609.67 C888.07,610.99 885.86,618.47 886.22,623.00 C886.46,626.01 886.99,626.67 890.00,627.69 ZM 186.10 287.96 C188.41,289.63 191.07,291.00 192.01,291.00 C193.65,291.00 202.00,280.27 202.00,278.16 C202.00,276.47 193.46,270.00 191.23,270.00 C188.01,270.00 180.26,280.64 181.38,283.54 C181.67,284.30 183.79,286.29 186.10,287.96 ZM 116.39 450.02 C119.61,451.32 126.63,451.15 127.73,449.75 C129.10,448.01 131.17,436.61 130.46,434.75 C129.44,432.09 118.15,430.90 116.21,433.25 C114.81,434.95 112.92,445.63 113.67,447.59 C114.01,448.46 115.23,449.55 116.39,450.02 ZM 846.04 314.05 C848.26,317.32 850.64,320.00 851.34,320.00 C852.04,320.00 854.72,318.66 857.30,317.02 C860.66,314.89 862.00,313.39 862.00,311.76 C862.00,308.82 855.41,299.00 853.44,299.00 C852.61,299.00 849.70,300.13 846.97,301.52 C840.79,304.65 840.68,306.16 846.04,314.05 ZM 880.03 661.93 C885.35,664.34 886.42,664.43 888.23,662.62 C890.09,660.77 893.42,649.53 892.68,647.62 C892.36,646.77 889.55,645.34 886.44,644.44 C881.69,643.06 880.58,643.01 879.51,644.15 C877.70,646.09 874.09,657.53 874.89,658.82 C875.25,659.41 877.57,660.81 880.03,661.93 ZM 811.38 263.21 C813.82,264.78 822.00,257.69 822.00,254.01 C822.00,251.22 813.83,242.00 811.36,242.00 C809.48,242.00 802.00,249.43 802.00,251.28 C802.00,252.78 808.99,261.67 811.38,263.21 ZM 866.50 695.15 C868.70,696.16 871.17,696.87 872.00,696.74 C872.83,696.61 875.08,693.47 877.00,689.76 C879.80,684.37 880.28,682.67 879.39,681.26 C878.09,679.18 869.28,675.68 867.29,676.44 C866.53,676.73 864.53,679.91 862.85,683.51 C859.34,691.01 859.65,692.01 866.50,695.15 ZM 136.68 662.19 C137.77,663.40 139.05,663.81 140.42,663.39 C145.42,661.87 149.07,659.99 149.58,658.66 C150.25,656.92 147.46,647.02 145.58,644.44 C144.26,642.63 144.02,642.63 138.71,644.30 C131.03,646.72 130.59,647.51 133.01,654.53 C134.11,657.74 135.76,661.19 136.68,662.19 ZM 849.00 725.91 C854.36,729.10 855.63,728.63 860.02,721.84 C862.21,718.46 864.00,715.34 864.00,714.92 C864.00,713.58 860.94,711.01 856.88,708.94 C851.85,706.38 850.41,707.17 846.27,714.75 C842.64,721.42 842.84,722.24 849.00,725.91 ZM 412.25 132.80 C413.42,134.21 418.42,133.75 425.00,131.63 C429.05,130.32 429.80,127.70 428.02,121.08 C427.04,117.45 426.59,117.00 423.90,117.00 C419.62,117.00 411.75,119.03 410.11,120.55 C408.97,121.62 408.94,122.69 409.94,126.66 C410.60,129.31 411.64,132.07 412.25,132.80 ZM 151.97 696.03 C154.86,697.71 163.31,693.69 163.79,690.42 C164.18,687.76 159.39,677.09 157.48,676.35 C155.49,675.59 146.97,679.10 145.62,681.24 C144.83,682.49 145.28,684.36 147.51,689.02 C149.12,692.39 151.13,695.55 151.97,696.03 ZM 166.67 724.75 C168.01,726.54 169.83,728.00 170.71,728.00 C173.34,728.00 181.00,723.05 181.00,721.35 C181.00,720.49 179.59,717.13 177.86,713.89 C175.30,709.09 174.25,708.00 172.20,708.00 C169.36,708.00 161.00,712.55 161.00,714.09 C161.00,715.59 163.91,721.06 166.67,724.75 ZM 346.75 156.25 C347.61,157.21 348.42,158.00 348.56,158.00 C350.19,158.00 362.18,151.70 362.59,150.63 C362.89,149.84 362.15,146.90 360.95,144.10 C359.20,140.04 358.28,139.00 356.41,139.00 C353.26,139.00 343.11,143.55 342.46,145.25 C341.84,146.85 344.54,153.76 346.75,156.25 ZM 829.20 755.27 C831.51,756.77 833.90,758.00 834.51,758.00 C836.03,758.00 844.00,746.98 844.00,744.88 C844.00,742.77 838.73,738.22 835.29,737.36 C832.58,736.68 832.15,737.06 826.42,745.18 C823.19,749.76 823.73,751.73 829.20,755.27 ZM 316.15 172.39 C318.13,173.78 318.69,173.69 322.90,171.30 C329.65,167.47 331.37,165.59 330.65,162.84 C329.66,159.03 326.15,154.00 324.49,154.00 C323.64,154.00 320.26,155.36 316.97,157.01 C312.04,159.50 311.00,160.47 311.00,162.56 C311.00,165.86 313.42,170.48 316.15,172.39 ZM 780.58 807.82 C782.55,810.12 784.98,812.00 785.98,812.00 C787.77,812.00 798.00,801.72 798.00,799.92 C798.00,798.27 790.80,791.00 789.17,791.00 C787.36,791.00 777.00,800.83 777.00,802.54 C777.00,803.14 778.61,805.52 780.58,807.82 ZM 377.68 140.75 C379.32,144.70 381.47,144.90 389.41,141.86 C394.13,140.05 395.00,139.33 395.00,137.23 C395.00,133.46 392.79,126.86 391.34,126.30 C389.66,125.66 376.71,129.85 375.79,131.34 C375.00,132.62 375.65,135.88 377.68,140.75 ZM 446.80 125.26 C448.05,126.70 449.27,126.90 453.42,126.37 C462.46,125.21 463.00,124.77 463.00,118.72 C463.00,110.54 461.83,109.56 453.60,110.84 C449.88,111.42 446.21,112.41 445.45,113.04 C443.69,114.50 444.60,122.73 446.80,125.26 ZM 481.69 121.55 C483.96,123.81 495.81,122.83 497.80,120.22 C499.32,118.21 498.45,108.97 496.63,107.74 C495.54,107.02 482.29,107.81 480.75,108.69 C479.20,109.58 479.95,119.81 481.69,121.55 ZM 186.77 754.41 C188.58,756.39 190.28,758.00 190.57,758.00 C192.17,758.00 197.11,754.68 198.90,752.40 C200.90,749.86 200.91,749.66 199.24,746.78 C198.28,745.14 196.13,742.21 194.46,740.27 C191.02,736.26 189.14,736.33 183.99,740.66 C179.61,744.34 180.19,747.20 186.77,754.41 ZM 232.22 806.72 C235.08,809.62 238.10,812.00 238.92,812.00 C241.37,812.00 247.00,805.85 247.00,803.16 C247.00,800.64 238.40,791.00 236.15,791.00 C234.32,791.00 227.00,798.07 227.00,799.83 C227.00,800.72 229.35,803.81 232.22,806.72 ZM 207.59 780.89 C210.12,783.70 212.82,786.00 213.59,786.00 C215.45,786.00 223.00,779.13 223.00,777.44 C223.00,776.03 215.62,767.02 213.38,765.71 C210.66,764.12 203.00,769.92 203.00,773.57 C203.00,774.79 205.05,778.07 207.59,780.89 ZM 754.07 832.27 C755.76,834.32 757.74,836.00 758.46,836.00 C760.55,836.00 771.00,826.92 771.00,825.11 C771.00,824.20 769.86,821.78 768.46,819.73 C765.07,814.74 762.19,814.82 755.89,820.09 C750.10,824.94 749.78,827.06 754.07,832.27 ZM 661.07 888.13 C662.91,891.74 663.43,892.11 665.82,891.51 C670.41,890.37 678.47,885.58 678.81,883.79 C679.28,881.29 675.35,873.00 673.69,873.00 C672.91,873.00 669.29,874.35 665.64,876.01 C658.05,879.45 657.45,881.04 661.07,888.13 ZM 806.07 782.44 C808.31,784.47 810.87,785.98 811.76,785.81 C813.72,785.43 822.00,775.50 822.00,773.53 C822.00,771.73 814.96,765.02 813.06,765.01 C811.13,765.00 802.00,774.97 802.00,777.09 C802.00,778.01 803.83,780.42 806.07,782.44 ZM 726.78 855.75 C729.14,857.59 729.97,857.37 736.00,853.19 C739.43,850.81 741.62,848.53 741.83,847.12 C742.31,843.79 738.04,838.02 735.09,838.01 C732.31,838.00 723.37,843.43 722.03,845.95 C721.04,847.79 723.77,853.41 726.78,855.75 ZM 320.18 872.39 C323.66,874.36 326.76,875.98 327.08,875.98 C328.33,876.02 332.02,871.23 333.08,868.19 C333.90,865.86 333.91,864.59 333.12,863.65 C331.15,861.27 322.02,856.86 319.75,857.18 C317.25,857.54 312.47,865.18 313.34,867.44 C313.63,868.19 316.71,870.42 320.18,872.39 ZM 259.59 831.45 C262.67,833.95 265.78,836.00 266.51,836.00 C268.16,836.00 274.00,828.18 274.00,825.96 C274.00,823.74 264.68,816.00 262.01,816.00 C259.31,816.00 254.00,821.74 254.00,824.67 C254.00,826.16 255.85,828.39 259.59,831.45 ZM 695.25 874.25 C696.33,875.21 697.51,876.00 697.87,876.00 C698.22,876.00 701.43,874.29 705.00,872.19 C710.37,869.04 711.45,867.97 711.23,866.03 C710.80,862.24 707.07,857.00 704.79,857.00 C702.21,857.00 692.03,862.76 691.31,864.64 C690.57,866.56 692.85,872.12 695.25,874.25 ZM 387.13 902.53 C387.59,902.70 388.01,902.86 388.41,903.01 C392.53,904.54 393.85,905.04 394.78,904.63 C395.31,904.40 395.71,903.87 396.43,903.08 C397.50,901.90 398.23,899.32 398.33,896.33 L 398.50 891.50 L 383.84 886.50 L 382.04 888.72 C379.86,891.39 378.49,897.89 379.81,899.21 C380.34,899.74 383.63,901.23 387.13,902.53 ZM 289.25 853.42 C292.14,855.37 295.02,856.97 295.67,856.98 C297.38,857.01 303.00,849.54 303.00,847.23 C303.00,844.67 293.46,838.00 289.80,838.00 C287.71,838.00 286.56,838.93 284.62,842.18 C281.56,847.31 282.08,848.57 289.25,853.42 ZM 558.72 919.57 C559.70,920.31 561.17,920.74 562.00,920.53 C562.83,920.32 565.87,919.84 568.77,919.48 C574.96,918.69 576.13,917.19 575.07,911.41 C573.89,904.91 573.58,904.71 566.13,905.50 C556.40,906.54 555.62,907.15 556.34,913.22 C556.71,916.32 557.61,918.74 558.72,919.57 ZM 593.13 912.25 C594.03,913.92 594.87,914.15 598.35,913.64 C606.58,912.45 609.95,911.04 610.59,908.51 C611.36,905.44 609.27,899.04 607.24,898.26 C605.30,897.52 593.97,899.79 592.15,901.29 C590.68,902.51 591.23,908.69 593.13,912.25 ZM 421.46 912.63 C430.13,914.77 431.30,914.30 432.82,908.12 C434.35,901.85 433.95,901.16 427.73,899.30 C422.05,897.60 417.51,897.68 416.00,899.50 C414.12,901.77 413.48,909.56 415.10,910.56 C415.83,911.01 418.69,911.94 421.46,912.63 ZM 353.50 889.09 C358.64,891.45 359.79,891.66 361.49,890.56 C363.88,889.01 366.40,881.19 365.03,879.54 C363.30,877.45 352.20,872.71 350.54,873.35 C349.64,873.69 347.99,876.03 346.88,878.55 C344.38,884.19 345.01,885.19 353.50,889.09 ZM 628.61 903.47 C629.45,904.31 630.27,905.00 630.41,905.00 C631.63,905.00 642.58,900.77 643.64,899.88 C645.29,898.52 645.38,895.38 643.90,891.15 C642.98,888.50 642.30,888.00 639.58,888.00 C635.01,888.00 627.14,890.88 626.02,892.96 C624.88,895.09 626.40,901.26 628.61,903.47 ZM 486.20 921.80 C486.91,922.51 490.36,923.00 494.72,923.00 C501.67,923.00 502.10,922.87 503.02,920.43 C504.13,917.54 504.30,912.94 503.39,910.58 C502.91,909.33 501.19,909.00 495.09,909.00 C490.44,909.00 486.93,909.47 486.20,910.20 C484.64,911.76 484.64,920.24 486.20,921.80 ZM 454.16 919.01 C459.55,920.28 465.66,920.12 466.86,918.66 C468.27,916.97 468.64,908.24 467.36,906.96 C466.84,906.44 462.83,905.89 458.45,905.75 L 450.51 905.50 L 449.60 910.80 C448.58,916.84 449.12,917.81 454.16,919.01 ZM 522.20 921.80 C522.90,922.50 526.23,923.00 530.13,923.00 C538.72,923.00 540.49,921.56 539.62,915.23 C539.29,912.81 538.76,910.42 538.45,909.92 C537.60,908.54 523.61,908.79 522.20,910.20 C521.54,910.86 521.00,913.47 521.00,916.00 C521.00,918.53 521.54,921.14 522.20,921.80 ZM 583.77 730.50 C578.99,734.25 574.00,736.33 574.00,734.56 C574.00,733.77 591.14,724.00 592.52,724.00 C593.25,724.00 595.12,725.01 596.67,726.25 C598.23,727.49 601.19,729.36 603.26,730.42 C608.25,732.95 609.99,735.00 607.17,735.00 C606.03,735.00 604.74,734.42 604.30,733.72 C603.04,731.69 593.53,726.00 591.41,726.00 C590.36,726.00 586.92,728.03 583.77,730.50 ZM 336.89 723.18 C335.73,727.48 334.47,731.00 334.09,731.00 C333.10,731.00 334.46,721.08 335.93,717.50 C337.15,714.55 337.05,714.39 329.99,707.75 C326.04,704.04 323.09,701.00 323.42,701.00 C324.61,701.00 339.00,713.30 339.00,714.32 C339.00,714.90 338.05,718.88 336.89,723.18 ZM 459.50 698.00 C460.11,698.99 457.40,699.05 446.37,698.27 L 441.24 697.90 L 438.12 690.47 C434.57,682.03 434.41,681.26 436.50,683.00 C437.33,683.68 438.00,684.70 438.00,685.26 C438.00,687.81 442.70,695.32 444.80,696.11 C446.08,696.60 449.77,697.00 453.01,697.00 C456.24,697.00 459.16,697.45 459.50,698.00 ZM 618.44 698.04 C619.48,699.08 612.92,699.11 604.68,698.09 L 599.87 697.50 L 597.06 690.84 C595.52,687.17 593.97,682.90 593.62,681.34 C593.04,678.81 593.25,678.93 595.51,682.50 C596.90,684.70 598.29,687.62 598.61,689.00 C599.46,692.75 599.79,694.63 600.90,695.59 C602.12,696.65 604.27,696.63 609.07,696.79 C613.70,696.96 617.92,697.52 618.44,698.04 ZM 419.55 733.92 C418.80,735.14 416.00,735.40 416.01,734.25 C416.01,733.40 431.45,724.00 432.84,724.00 C433.34,724.00 437.29,726.13 441.62,728.74 C447.17,732.07 448.94,733.58 447.62,733.83 C446.59,734.03 445.46,733.79 445.12,733.28 C443.75,731.26 435.01,726.00 433.02,726.00 C430.87,726.00 420.78,731.93 419.55,733.92 ZM 690.50 727.75 C691.13,731.71 690.50,733.58 689.49,730.75 C688.28,727.36 686.00,717.32 686.00,715.37 C686.00,713.92 688.15,711.24 692.25,707.58 C695.69,704.52 698.95,702.02 699.50,702.02 C700.78,702.04 690.00,712.50 688.00,713.18 C686.68,713.63 686.70,714.28 688.16,718.60 C689.07,721.29 690.12,725.41 690.50,727.75 ZM 656.02 719.80 C655.34,722.83 654.21,726.93 653.50,728.91 C652.42,731.92 652.09,732.20 651.46,730.64 C651.00,729.52 651.55,726.38 652.86,722.64 C654.05,719.26 655.02,715.83 655.03,715.00 C655.03,714.17 651.99,710.64 648.27,707.15 C644.55,703.66 643.08,702.03 645.00,703.52 C646.92,705.02 650.47,708.06 652.88,710.26 L 657.26 714.28 ZM 578.32 698.16 C571.06,699.16 561.05,699.05 563.50,698.00 C564.60,697.53 568.66,697.11 572.53,697.07 C580.94,696.99 583.12,695.72 585.03,689.82 C585.80,687.44 587.01,684.38 587.71,683.00 C590.03,678.45 589.05,682.74 586.07,690.18 L 583.13 697.50 ZM 494.12 696.37 C484.14,697.22 477.50,697.16 478.42,696.25 C478.83,695.84 483.96,695.28 489.83,695.00 L 500.50 694.50 L 502.82 689.65 C504.09,686.98 505.41,685.08 505.75,685.42 C506.09,685.76 505.28,688.22 503.95,690.89 L 501.53 695.75 ZM 415.00 729.05 C415.00,730.12 414.56,731.00 414.03,731.00 C413.50,731.00 413.24,730.44 413.46,729.75 C415.49,723.39 416.95,714.74 416.23,713.44 C415.75,712.58 413.51,710.66 411.24,709.16 C408.98,707.67 406.11,705.13 404.85,703.54 L 402.57 700.63 L 406.12 703.07 C412.38,707.36 419.20,713.87 418.54,714.94 C417.59,716.48 415.00,726.80 415.00,729.05 ZM 424.19 697.21 C423.21,698.19 402.29,699.51 403.19,698.53 C403.58,698.12 408.30,697.49 413.69,697.14 L 423.50 696.50 L 423.81 693.25 C423.99,691.46 424.49,690.00 424.94,690.00 C425.39,690.00 426.32,688.64 427.01,686.98 C427.70,685.32 428.61,683.74 429.04,683.47 C429.96,682.91 425.30,696.10 424.19,697.21 ZM 380.60 698.27 C381.33,698.99 373.18,699.00 365.50,698.28 C361.65,697.91 361.40,697.67 358.87,691.70 C355.01,682.62 354.48,679.45 358.08,687.00 C359.78,690.58 361.52,694.17 361.94,695.00 C362.50,696.09 365.06,696.64 371.29,697.02 C376.01,697.31 380.20,697.87 380.60,698.27 ZM 697.00 698.00 C698.93,698.62 698.37,698.79 694.50,698.74 C691.75,698.71 687.25,698.42 684.51,698.09 L 679.51 697.50 L 676.83 691.00 C673.86,683.79 673.56,682.61 674.94,683.46 C675.45,683.78 676.83,686.61 678.01,689.76 C679.19,692.90 680.68,695.81 681.32,696.22 C681.97,696.63 685.20,697.02 688.50,697.08 C691.80,697.15 695.62,697.56 697.00,698.00 ZM 532.37 722.32 C534.45,726.57 535.04,729.09 534.81,732.71 C534.45,738.30 534.04,737.44 531.05,724.86 C528.53,714.26 528.53,713.78 530.94,712.27 C532.81,711.10 532.82,711.16 531.25,713.89 C529.70,716.59 529.75,716.97 532.37,722.32 ZM 612.88 709.22 C608.52,712.63 608.09,713.35 607.80,717.72 L 607.49 722.50 L 606.64 718.12 L 605.78 713.74 L 611.64 708.37 C614.86,705.41 618.34,702.50 619.37,701.90 C621.19,700.83 621.19,700.87 619.45,703.15 C618.46,704.44 615.51,707.17 612.88,709.22 ZM 449.44 719.38 C449.83,722.47 449.96,725.00 449.73,725.00 C449.50,725.00 448.71,722.46 447.97,719.36 L 446.61 713.72 L 452.06 708.84 C460.01,701.70 462.61,700.84 455.12,707.82 L 448.74 713.76 ZM 344.72 696.75 C344.13,697.51 341.75,697.93 338.63,697.82 L 333.50 697.63 L 338.50 697.27 L 343.50 696.90 L 345.39 690.89 C346.42,687.59 348.10,683.90 349.10,682.69 L 350.93 680.50 L 350.08 683.50 C348.85,687.86 345.84,695.30 344.72,696.75 ZM 493.08 725.32 C490.45,736.65 488.63,739.99 489.57,731.73 C489.94,728.56 491.08,724.30 492.12,722.27 C493.15,720.24 494.04,717.43 494.08,716.04 C494.12,714.64 494.40,714.09 494.69,714.82 C494.98,715.55 494.26,720.27 493.08,725.32 ZM 370.57 722.60 C371.44,725.58 371.98,728.80 371.78,729.75 C371.58,730.71 370.41,727.51 369.17,722.62 C367.93,717.74 367.06,713.69 367.22,713.62 C367.39,713.56 369.55,711.70 372.02,709.50 L 376.50 705.50 L 372.75 709.54 C368.52,714.10 368.37,715.02 370.57,722.60 ZM 530.68 738.20 C531.58,739.19 531.86,740.00 531.31,740.00 C530.04,740.00 522.46,734.55 521.45,732.92 C520.42,731.25 528.65,735.96 530.68,738.20 ZM 499.00 735.89 C496.52,738.12 493.83,739.94 493.00,739.93 C491.22,739.93 495.33,736.35 500.23,733.65 C503.10,732.06 502.96,732.33 499.00,735.89 ZM 575.98 720.19 C575.99,721.67 575.55,723.16 575.00,723.50 C573.72,724.29 573.72,720.98 575.00,719.00 C575.76,717.83 575.97,718.09 575.98,720.19 Z" fill="rgb(10,38,68)"/>
<path d="M 291.76 755.52 C280.72,752.47 271.04,742.63 268.10,731.45 C267.37,728.67 267.01,675.67 266.97,561.95 L 266.91 396.50 L 383.70 396.26 C447.94,396.13 501.06,396.38 501.74,396.82 C502.97,397.60 500.79,403.65 493.71,419.14 C492.36,422.09 487.85,432.38 483.69,442.00 C479.53,451.62 473.95,464.44 471.28,470.49 C465.60,483.37 469.27,481.72 439.00,484.98 C428.27,486.14 411.40,487.97 401.50,489.04 C391.60,490.11 377.02,491.66 369.10,492.48 C361.18,493.30 354.46,494.21 354.17,494.50 C353.50,495.16 355.81,497.34 375.95,515.04 C392.55,529.64 409.23,544.49 423.00,556.92 C427.12,560.64 432.14,565.12 434.15,566.87 L 437.81 570.04 L 436.37 575.27 C435.57,578.15 434.52,582.53 434.04,585.00 C433.55,587.47 432.04,594.22 430.68,600.00 C429.33,605.78 427.90,612.53 427.51,615.00 C427.12,617.47 426.01,622.65 425.03,626.50 C424.06,630.35 422.09,638.67 420.65,645.00 C419.22,651.33 416.87,661.55 415.44,667.72 C411.82,683.33 412.36,683.77 425.10,675.66 C436.72,668.26 455.50,657.12 461.50,654.05 C464.25,652.65 467.62,650.78 469.00,649.90 C472.98,647.35 488.60,637.86 499.83,631.16 C505.51,627.77 510.93,625.00 511.87,625.00 C512.80,625.00 525.25,631.94 539.54,640.42 C569.38,658.15 570.31,658.70 586.84,668.32 C606.18,679.57 609.84,681.49 610.58,680.75 C610.96,680.37 610.81,677.91 610.24,675.28 C609.67,672.65 607.79,663.75 606.06,655.50 C604.33,647.25 602.24,637.87 601.41,634.66 C600.58,631.45 598.34,621.55 596.43,612.66 C594.52,603.77 591.66,590.91 590.07,584.08 C588.49,577.25 587.40,571.12 587.65,570.46 C588.08,569.34 597.44,560.63 606.50,552.93 C608.70,551.06 613.20,547.00 616.50,543.91 C619.80,540.82 626.33,534.97 631.00,530.91 C635.67,526.86 641.30,521.89 643.50,519.88 C651.95,512.14 659.55,506.02 660.70,506.01 C661.62,506.00 661.98,516.93 662.20,551.75 L 662.50 597.50 L 665.13 603.11 C668.03,609.30 672.33,613.15 678.94,615.48 C686.19,618.04 691.58,617.45 700.00,613.19 C708.64,608.82 727.51,598.17 737.01,592.30 C747.40,585.87 753.89,582.74 755.53,583.37 C756.88,583.89 757.02,592.42 756.77,657.73 L 756.50 731.50 L 754.20 736.50 C751.06,743.34 743.95,750.28 736.61,753.68 L 730.50 756.50 L 513.50 756.66 C337.56,756.80 295.60,756.58 291.76,755.52 ZM 633.50 489.53 C622.50,488.29 605.85,486.51 596.50,485.59 C587.15,484.66 576.58,483.46 573.00,482.93 C569.42,482.39 564.53,481.89 562.12,481.81 C557.92,481.67 557.66,481.47 555.75,477.08 C554.65,474.56 552.63,470.02 551.26,467.00 C549.88,463.98 547.19,457.90 545.27,453.50 C541.61,445.13 540.40,442.30 529.59,417.00 C525.95,408.48 522.53,400.72 521.98,399.76 C521.44,398.81 521.00,397.52 521.00,396.90 C521.00,395.50 753.96,396.70 755.46,398.11 C756.88,399.45 756.81,459.58 755.38,461.01 C753.91,462.49 748.74,460.02 734.50,451.00 C728.45,447.17 720.59,442.61 717.04,440.85 C713.49,439.09 707.50,435.88 703.73,433.71 C688.41,424.87 672.03,428.64 665.06,442.59 C662.77,447.18 662.62,448.59 662.29,468.47 C662.10,480.04 661.74,490.06 661.50,490.75 C660.93,492.39 657.60,492.24 633.50,489.53 ZM 254.68 375.50 C253.03,374.95 250.75,373.23 249.59,371.68 C247.53,368.90 247.50,368.07 247.50,316.68 C247.50,266.30 247.57,264.38 249.50,261.11 C252.81,255.51 256.90,254.00 268.78,254.00 C269.13,254.00 269.47,254.00 269.80,254.00 C274.58,254.00 277.56,253.99 280.21,254.91 C284.75,256.49 288.36,260.78 298.50,272.42 C301.80,276.21 306.52,281.63 309.00,284.46 C311.48,287.30 317.33,294.05 322.00,299.47 C326.67,304.89 332.40,311.39 334.73,313.91 C341.78,321.57 342.23,323.70 341.84,347.77 C341.53,367.08 341.34,368.97 339.51,370.99 C338.42,372.20 336.62,373.71 335.51,374.34 C332.84,375.88 258.98,376.94 254.68,375.50 ZM 532.37 722.32 C529.75,716.97 529.70,716.59 531.25,713.89 C532.82,711.16 532.81,711.10 530.94,712.27 C530.89,712.30 530.85,712.33 530.81,712.35 C531.38,711.76 532.13,711.18 533.05,710.50 C535.28,708.85 538.29,706.26 539.72,704.75 C541.16,703.24 542.82,702.00 543.42,702.00 C544.03,702.00 545.05,701.15 545.70,700.11 C546.75,698.42 546.52,698.13 543.69,697.50 C541.94,697.10 536.34,696.57 531.25,696.32 C523.26,695.93 521.85,695.59 520.92,693.85 C520.32,692.74 520.06,691.60 520.34,691.33 C521.11,690.55 518.92,685.00 517.84,685.00 C517.31,685.00 517.16,684.55 517.50,684.00 C517.84,683.45 517.66,683.00 517.09,683.00 C516.53,683.00 516.32,682.33 516.64,681.50 C516.96,680.67 516.67,680.00 516.00,680.00 C515.33,680.00 515.04,679.33 515.36,678.50 C515.68,677.67 515.51,677.00 514.99,677.00 C514.47,677.00 513.76,675.88 513.41,674.50 C512.49,670.82 511.68,671.40 509.61,677.25 C508.59,680.14 506.42,685.49 504.79,689.14 L 501.83 695.77 L 498.55 696.00 L 501.53 695.75 L 503.95 690.89 C505.28,688.22 506.09,685.76 505.75,685.42 C505.41,685.08 504.09,686.98 502.82,689.65 L 500.50 694.50 L 489.83 695.00 C483.96,695.28 478.83,695.84 478.42,696.25 C477.80,696.87 480.66,697.09 485.69,696.91 C477.72,697.58 477.07,698.14 478.24,700.01 C478.88,701.03 479.74,701.66 480.16,701.40 C480.57,701.15 481.66,702.08 482.57,703.47 C483.48,704.86 484.74,706.02 485.37,706.04 C485.99,706.06 488.60,707.97 491.17,710.29 L 495.83 714.50 L 493.42 724.50 C492.09,730.00 490.77,735.51 490.48,736.75 C490.20,737.99 490.36,739.00 490.84,739.00 C491.33,739.00 495.25,736.67 499.57,733.83 C507.10,728.86 513.99,726.41 515.69,728.08 C516.14,728.52 517.62,729.48 519.00,730.21 C520.38,730.94 524.09,733.29 527.27,735.42 C530.44,737.56 533.31,739.03 533.65,738.69 C533.99,738.35 533.24,734.12 532.00,729.28 C530.47,723.36 529.57,719.73 529.37,717.26 C529.66,718.96 530.22,721.36 531.05,724.86 C534.04,737.44 534.45,738.30 534.81,732.71 C535.04,729.09 534.45,726.57 532.37,722.32 ZM 459.50 698.00 C459.16,697.45 456.24,697.00 453.01,697.00 C449.77,697.00 446.08,696.60 444.80,696.11 C442.70,695.32 438.00,687.81 438.00,685.26 C438.00,684.70 437.33,683.68 436.50,683.00 C434.41,681.26 434.57,682.03 438.12,690.47 L 439.16 692.96 L 438.40 691.16 C436.84,687.50 434.84,682.98 433.94,681.13 L 432.31 677.76 L 428.57 687.13 C427.74,689.23 426.91,691.22 426.20,692.88 C427.83,688.69 429.65,683.10 429.04,683.47 C428.61,683.74 427.70,685.32 427.01,686.98 C426.32,688.64 425.39,690.00 424.94,690.00 C424.49,690.00 423.99,691.46 423.81,693.25 L 423.50 696.50 L 413.69 697.14 C408.30,697.49 403.58,698.12 403.19,698.53 C402.48,699.29 415.16,698.66 421.16,697.87 C419.24,698.14 416.58,698.41 413.74,698.61 C408.38,698.99 404.00,699.64 404.00,700.06 C404.00,700.48 407.36,703.65 411.47,707.11 C415.39,710.40 417.34,711.88 418.02,713.60 C416.33,711.21 411.05,706.45 406.12,703.07 L 402.57 700.63 L 404.85 703.54 C406.11,705.13 408.98,707.67 411.24,709.16 C413.51,710.66 415.75,712.58 416.23,713.44 C416.95,714.74 415.49,723.39 413.46,729.75 C413.24,730.44 413.50,731.00 414.03,731.00 C414.56,731.00 415.00,730.12 415.00,729.05 C415.00,726.95 417.24,717.87 418.32,715.38 C418.28,716.95 417.66,719.03 416.76,722.50 C416.18,724.70 415.40,728.15 415.01,730.16 C414.19,734.38 414.78,734.37 421.50,730.11 C426.45,726.96 430.31,724.84 432.18,724.20 C428.89,725.56 416.01,733.47 416.01,734.25 C416.00,735.40 418.80,735.14 419.55,733.92 C420.78,731.93 430.87,726.00 433.02,726.00 C435.01,726.00 443.75,731.26 445.12,733.28 C445.46,733.79 446.59,734.03 447.62,733.83 C448.94,733.58 447.17,732.07 441.62,728.74 C437.47,726.24 433.67,724.18 432.92,724.01 C432.98,724.00 433.03,724.00 433.08,724.00 C433.68,724.00 437.80,726.23 442.24,728.97 C446.67,731.70 450.73,733.66 451.26,733.34 C451.82,732.99 451.72,732.44 451.00,732.00 C450.28,731.55 450.06,730.39 450.46,729.12 C450.86,727.86 450.70,727.00 450.07,727.00 C449.48,727.00 449.00,726.11 449.00,725.01 C449.00,724.31 448.77,722.83 448.43,721.20 C449.02,723.40 449.55,725.00 449.73,725.00 C449.96,725.00 449.83,722.47 449.44,719.38 L 448.74 713.76 L 455.12 707.82 C462.61,700.84 460.01,701.70 452.06,708.84 L 448.82 711.74 C449.24,711.29 449.75,710.77 450.35,710.15 C452.42,708.03 455.88,704.99 458.04,703.40 C460.19,701.80 461.96,700.22 461.98,699.87 C461.99,699.58 458.83,699.13 454.52,698.75 C458.79,698.92 459.92,698.68 459.50,698.00 ZM 583.77 730.50 C586.92,728.03 590.36,726.00 591.41,726.00 C593.53,726.00 603.04,731.69 604.30,733.72 C604.74,734.42 606.03,735.00 607.17,735.00 C609.44,735.00 608.75,733.67 605.79,731.83 C607.75,732.97 608.74,733.36 609.20,733.02 C609.68,732.67 609.60,731.54 609.45,729.68 C609.43,729.40 609.41,729.10 609.39,728.79 C609.19,725.95 608.63,723.38 608.14,723.07 C607.96,722.95 607.74,722.57 607.53,722.02 L 607.80 717.72 C608.09,713.35 608.52,712.63 612.88,709.22 C615.51,707.17 618.46,704.44 619.45,703.15 C621.19,700.87 621.19,700.83 619.37,701.90 C618.34,702.50 614.86,705.41 611.64,708.37 L 605.78 713.74 L 606.64 718.12 L 607.24 721.20 C606.96,720.31 606.69,719.18 606.49,718.01 L 605.78 713.74 L 605.74 713.52 L 613.62 706.27 L 621.50 699.03 L 617.50 699.01 C616.18,699.00 613.91,698.89 611.49,698.73 C616.18,699.00 619.17,698.77 618.44,698.04 C617.92,697.52 613.70,696.96 609.07,696.79 C604.27,696.63 602.12,696.65 600.90,695.59 C599.79,694.63 599.46,692.75 598.61,689.00 C598.29,687.62 596.90,684.70 595.51,682.50 C593.25,678.93 593.04,678.81 593.62,681.34 C593.91,682.63 595.01,685.76 596.26,688.87 C593.96,683.82 591.47,679.21 591.01,679.50 C590.61,679.74 588.84,683.77 587.07,688.45 C585.48,692.67 583.85,696.39 583.22,697.28 L 586.07 690.18 C589.05,682.74 590.03,678.45 587.71,683.00 C587.01,684.38 585.80,687.44 585.03,689.82 C583.12,695.72 580.94,696.99 572.53,697.07 C568.66,697.11 564.60,697.53 563.50,698.00 C562.07,698.62 564.91,698.91 568.96,698.84 L 562.07 699.30 L 564.68 702.40 C566.12,704.10 567.66,705.50 568.11,705.50 C569.27,705.50 577.00,714.20 577.00,715.51 C577.00,716.11 576.15,720.48 575.12,725.22 C575.00,725.73 574.90,726.22 574.80,726.67 C573.96,730.46 573.51,732.48 574.20,732.99 C574.98,733.58 577.23,732.22 582.06,729.30 C582.57,728.99 583.11,728.67 583.68,728.33 C587.63,725.95 591.41,724.00 592.07,724.00 C592.13,724.00 592.21,724.01 592.30,724.04 C589.91,724.70 574.00,733.80 574.00,734.56 C574.00,736.33 578.99,734.25 583.77,730.50 ZM 336.89 723.18 C338.02,719.00 338.95,715.12 339.00,714.38 C339.00,714.39 339.00,714.40 339.00,714.41 C339.00,715.03 338.16,718.68 337.12,722.52 C336.09,726.36 335.01,730.51 334.72,731.75 C334.43,732.99 334.30,734.00 334.43,734.00 C335.83,734.00 347.81,727.21 348.77,725.87 C349.63,724.68 351.00,724.22 352.99,724.47 C356.17,724.88 362.00,727.94 362.00,729.22 C362.00,729.65 362.67,730.00 363.50,730.00 C364.33,730.00 365.00,730.48 365.00,731.06 C365.00,731.64 365.45,731.84 366.01,731.50 C366.56,731.15 367.26,731.50 367.55,732.27 C367.84,733.04 368.74,733.67 369.53,733.67 C371.16,733.67 370.83,729.70 368.40,719.86 C367.63,716.75 367.00,713.97 367.00,713.67 C367.00,713.38 370.34,710.22 374.43,706.66 C378.51,703.10 381.59,699.92 381.26,699.59 C380.93,699.27 379.01,699.00 376.98,699.00 C373.57,699.00 370.34,698.80 367.65,698.46 C374.62,698.99 381.26,698.93 380.60,698.27 C380.20,697.87 376.01,697.31 371.29,697.02 C365.06,696.64 362.50,696.09 361.94,695.00 C361.52,694.17 359.78,690.58 358.08,687.00 C354.48,679.45 355.01,682.62 358.87,691.70 C360.18,694.78 360.87,696.34 361.77,697.17 C360.95,696.84 360.44,696.48 360.32,696.10 C359.16,692.40 353.64,679.90 352.99,679.50 C352.61,679.26 350.58,683.28 348.50,688.44 L 344.70 697.83 L 334.35 698.53 C328.66,698.92 324.00,699.57 324.00,699.98 C324.00,700.39 327.38,703.55 331.50,707.00 C334.75,709.72 337.53,712.36 338.57,713.67 C336.16,710.89 324.49,701.00 323.42,701.00 C323.09,701.00 326.04,704.04 329.99,707.75 C337.05,714.39 337.15,714.55 335.93,717.50 C334.46,721.08 333.10,731.00 334.09,731.00 C334.47,731.00 335.73,727.48 336.89,723.18 ZM 697.00 698.00 C695.62,697.56 691.80,697.15 688.50,697.08 C685.20,697.02 681.97,696.63 681.32,696.22 C680.68,695.81 679.19,692.90 678.01,689.76 C676.83,686.61 675.45,683.78 674.94,683.46 C674.18,682.99 673.93,683.14 674.36,684.58 C673.76,682.96 673.43,681.89 673.52,681.80 C673.67,681.64 673.20,680.95 672.48,680.28 C671.41,679.30 670.69,679.88 668.77,683.28 C667.45,685.60 665.54,689.44 664.51,691.81 C663.48,694.18 661.75,696.60 660.66,697.18 C659.57,697.76 654.93,698.48 650.34,698.76 C645.75,699.05 642.00,699.67 642.00,700.14 C642.00,700.61 642.34,701.00 642.75,701.01 C643.16,701.01 646.64,703.87 650.47,707.35 L 657.44 713.68 L 655.67 721.59 C654.70,725.94 653.68,730.54 653.42,731.80 C652.97,733.92 653.12,734.01 655.22,732.90 C656.47,732.23 660.23,729.97 663.57,727.87 C670.99,723.20 674.14,723.62 681.44,730.24 C682.50,731.21 683.74,732.06 684.19,732.12 C686.12,732.42 686.57,732.57 687.75,733.32 C689.51,734.44 689.37,730.44 687.40,723.30 C686.52,720.11 685.59,716.58 685.32,715.46 C684.95,713.87 686.52,712.03 692.42,707.19 C696.59,703.77 700.00,700.60 700.00,700.15 C700.00,699.77 696.86,699.17 692.60,698.69 C693.29,698.72 693.93,698.74 694.50,698.74 C698.37,698.79 698.93,698.62 697.00,698.00 ZM 265.42 289.58 C269.49,291.35 269.96,291.32 273.70,289.04 C278.55,286.08 280.50,281.62 279.06,276.79 C277.79,272.58 273.27,269.01 269.20,269.00 C263.57,268.99 258.00,274.62 258.00,280.32 C258.00,283.47 261.54,287.89 265.42,289.58 ZM 264.31 361.99 C271.87,365.03 278.94,360.30 278.98,352.17 C279.03,341.23 264.15,337.83 259.46,347.72 C257.02,352.86 259.46,360.04 264.31,361.99 ZM 315.00 361.25 C319.25,363.37 320.11,363.40 324.54,361.55 C326.58,360.69 328.42,359.02 329.01,357.48 C333.05,346.86 323.99,338.34 314.09,343.45 C307.34,346.94 307.89,357.70 315.00,361.25 ZM 690.50 727.75 C690.12,725.41 689.07,721.29 688.16,718.60 C686.70,714.28 686.68,713.63 688.00,713.18 C690.00,712.50 700.78,702.04 699.50,702.02 C698.95,702.02 695.69,704.52 692.25,707.58 C688.15,711.24 686.00,713.92 686.00,715.37 C686.00,717.32 688.28,727.36 689.49,730.75 C690.50,733.58 691.13,731.71 690.50,727.75 ZM 656.02 719.80 L 657.26 714.28 L 652.88 710.26 C650.47,708.06 646.92,705.02 645.00,703.52 C643.08,702.03 644.55,703.66 648.27,707.15 C651.99,710.64 655.03,714.17 655.03,715.00 C655.02,715.83 654.05,719.26 652.86,722.64 C651.55,726.38 651.00,729.52 651.46,730.64 C652.09,732.20 652.42,731.92 653.50,728.91 C654.21,726.93 655.34,722.83 656.02,719.80 ZM 344.72 696.75 C345.84,695.30 348.85,687.86 350.08,683.50 L 350.93 680.50 L 349.10 682.69 C348.10,683.90 346.42,687.59 345.39,690.89 L 343.50 696.90 L 338.50 697.27 L 333.50 697.63 L 338.63 697.82 C341.75,697.93 344.13,697.51 344.72,696.75 ZM 493.08 725.32 C494.26,720.27 494.98,715.55 494.69,714.82 C494.40,714.09 494.12,714.64 494.08,716.04 C494.04,717.43 493.15,720.24 492.12,722.27 C491.08,724.30 489.94,728.56 489.57,731.73 C488.63,739.99 490.45,736.65 493.08,725.32 ZM 370.57 722.60 C368.37,715.02 368.52,714.10 372.75,709.54 L 376.50 705.50 L 372.02 709.50 C369.55,711.70 367.39,713.56 367.22,713.62 C367.06,713.69 367.93,717.74 369.17,722.62 C370.41,727.51 371.58,730.71 371.78,729.75 C371.98,728.80 371.44,725.58 370.57,722.60 ZM 530.68 738.20 C528.65,735.96 520.42,731.25 521.45,732.92 C522.46,734.55 530.04,740.00 531.31,740.00 C531.86,740.00 531.58,739.19 530.68,738.20 ZM 499.00 735.89 C502.96,732.33 503.10,732.06 500.23,733.65 C495.33,736.35 491.22,739.93 493.00,739.93 C493.83,739.94 496.52,738.12 499.00,735.89 ZM 575.98 720.19 C575.97,718.09 575.76,717.83 575.00,719.00 C573.72,720.98 573.72,724.29 575.00,723.50 C575.55,723.16 575.99,721.67 575.98,720.19 ZM 604.95 731.32 C604.44,731.03 603.88,730.73 603.26,730.42 C601.19,729.36 598.23,727.49 596.67,726.25 C596.60,726.19 596.53,726.14 596.46,726.09 C597.39,726.61 598.39,727.21 599.39,727.84 C601.73,729.32 603.55,730.47 604.95,731.32 ZM 602.25 697.79 L 604.68 698.09 C606.05,698.26 607.37,698.40 608.62,698.51 C607.95,698.46 607.29,698.40 606.67,698.34 C604.71,698.16 603.29,698.00 602.25,697.79 ZM 578.83 698.09 L 582.89 697.53 C582.37,697.68 580.88,697.89 578.83,698.09 ZM 598.92 695.24 L 599.13 695.76 C599.06,695.60 598.99,695.43 598.92,695.24 ZM 447.30 716.58 L 447.46 717.24 C447.40,717.01 447.35,716.79 447.30,716.58 Z" fill="rgb(28,75,108)"/>
<path d="M 438.33 644.75 C438.64,643.51 440.24,636.42 441.89,629.00 C453.24,578.14 455.99,564.79 455.35,563.75 C454.08,561.70 437.47,546.66 408.26,521.11 C399.87,513.78 393.26,507.38 393.57,506.89 C393.87,506.40 395.52,506.00 397.23,506.00 C399.97,506.00 457.30,500.00 471.99,498.18 C476.79,497.58 477.66,497.12 478.93,494.50 C481.49,489.21 493.85,461.11 502.79,440.25 C507.56,429.11 511.75,420.00 512.10,420.00 C512.45,420.00 513.65,422.14 514.78,424.75 C523.91,445.99 533.95,469.01 539.75,482.00 L 546.66 497.50 L 588.29 502.04 C611.18,504.53 630.21,506.88 630.58,507.25 C630.95,507.62 629.76,509.17 627.93,510.71 C620.51,516.94 578.14,554.75 573.30,559.45 L 568.10 564.50 L 571.58 580.00 C574.78,594.22 581.06,622.61 584.71,639.32 C585.53,643.07 585.94,646.39 585.63,646.71 C585.31,647.02 576.38,642.11 565.78,635.80 C522.94,610.29 516.99,606.82 514.30,605.81 C511.73,604.85 509.89,605.71 491.50,616.53 C480.50,623.00 467.45,630.62 462.50,633.46 C457.55,636.31 450.53,640.52 446.89,642.82 C439.32,647.61 437.54,648.01 438.33,644.75 ZM 685.62 594.71 C684.12,593.60 684.00,587.34 684.24,522.00 L 684.50 450.50 L 686.74 450.18 C689.07,449.85 690.32,450.53 734.50,476.18 C748.25,484.17 768.95,496.14 780.50,502.80 C807.97,518.62 813.00,521.72 813.00,522.84 C813.00,523.36 808.84,526.13 803.75,529.00 C793.61,534.74 772.51,546.94 741.20,565.17 C730.03,571.68 720.74,577.00 720.56,577.00 C720.37,577.00 714.08,580.60 706.57,584.99 L 706.09 585.28 C690.35,594.50 687.98,595.88 686.47,595.24 C686.18,595.12 685.93,594.93 685.62,594.71 ZM 687.38 795.06 L 693.42 795.04 C727.45,794.94 734.64,794.51 744.12,791.98 C760.66,787.57 779.16,771.68 787.39,754.82 C794.12,741.05 794.74,736.34 795.57,693.51 L 796.09 666.91 L 796.50 697.43 L 802.13 687.96 C808.97,676.47 819.41,655.71 824.51,643.50 C828.70,633.43 839.00,603.50 839.00,601.37 C839.00,600.62 839.34,600.00 839.75,599.99 C842.83,599.96 871.54,607.61 873.11,608.89 C875.07,610.48 875.05,610.64 871.07,624.50 C857.44,671.93 834.46,715.52 801.02,757.38 C779.16,784.75 743.95,816.55 714.79,835.26 C713.26,836.24 712.29,837.04 711.32,837.05 C709.22,837.07 707.09,833.41 699.22,819.95 C698.50,818.71 697.73,817.40 696.92,816.00 C692.57,808.58 689.01,801.97 689.01,801.33 C689.00,800.69 690.58,799.19 692.50,798.00 C694.42,796.81 696.00,795.63 696.00,795.37 C696.00,795.21 692.56,795.10 687.38,795.06 ZM 229.00 676.62 L 229.00 657.25 L 229.01 693.37 C229.02,724.71 229.27,730.70 230.89,738.55 C236.04,763.47 256.89,785.69 281.50,792.48 C288.91,794.52 332.91,796.30 353.01,795.37 L 366.53 794.74 L 366.79 794.87 L 347.81 795.58 L 328.84 796.30 L 331.92 798.25 C333.61,799.32 335.00,800.80 335.00,801.54 C335.00,802.27 331.69,808.42 327.65,815.19 C323.60,821.96 319.08,829.64 317.61,832.25 C316.13,834.86 314.26,837.00 313.45,837.00 C312.64,837.00 309.73,835.42 306.99,833.50 C304.25,831.58 299.64,828.34 296.75,826.32 C256.88,798.36 217.92,756.14 192.22,713.04 C183.03,697.63 171.71,674.92 165.51,659.49 C159.18,643.70 151.15,619.35 150.34,613.50 C149.65,608.43 149.84,608.33 169.19,603.45 C183.30,599.90 186.00,599.72 186.00,602.33 C186.00,604.38 191.66,621.98 196.05,633.58 C205.04,657.34 224.90,695.83 228.25,695.97 C228.66,695.99 229.00,687.28 229.00,676.62 ZM 522.25 895.91 C521.33,894.95 521.00,889.00 521.00,873.42 L 521.00 852.24 L 530.75 851.57 C560.70,849.53 587.52,844.17 616.00,834.54 C635.23,828.04 643.29,824.68 659.31,816.50 L 671.91 810.07 L 673.79 812.78 C675.79,815.66 685.84,832.31 690.33,840.18 C691.80,842.75 693.00,845.53 693.00,846.36 C693.00,848.78 688.61,851.59 672.60,859.38 C644.63,873.01 610.20,884.72 581.00,890.54 C555.69,895.59 524.65,898.42 522.25,895.91 ZM 477.00 895.48 C446.33,892.10 411.81,883.90 384.35,873.47 C368.75,867.54 337.24,852.67 333.04,849.24 C330.18,846.92 330.37,846.23 336.93,835.00 C339.01,831.42 342.87,824.75 345.51,820.16 C348.14,815.58 350.82,811.62 351.47,811.37 C352.12,811.12 357.56,813.24 363.56,816.08 C400.81,833.69 426.05,841.83 462.27,847.92 C468.74,849.01 480.55,850.44 488.52,851.10 L 503.00 852.31 L 503.00 873.45 C503.00,888.57 502.66,894.94 501.80,895.80 C500.32,897.28 492.35,897.17 477.00,895.48 ZM 145.06 588.11 C143.80,585.76 141.70,573.77 139.35,555.50 C136.55,533.72 136.81,488.20 139.86,465.50 C142.56,445.49 144.37,436.23 145.91,434.69 C146.73,433.87 151.19,434.59 162.76,437.41 C171.42,439.52 178.91,441.63 179.40,442.08 C179.94,442.57 179.63,447.11 178.66,453.20 C172.35,492.48 172.32,537.05 178.58,570.00 C178.76,570.96 178.93,571.84 179.09,572.66 C179.98,577.15 180.47,579.61 179.52,581.23 C178.22,583.46 174.19,584.12 164.75,586.38 C147.19,590.58 146.42,590.65 145.06,588.11 ZM 847.33 548.02 C847.68,547.45 847.93,546.94 848.06,546.50 C848.21,545.95 849.42,543.15 850.73,540.27 C855.62,529.59 855.83,516.76 851.27,506.25 C850.38,504.19 849.54,501.96 849.42,501.31 C849.28,500.57 848.78,499.61 848.01,498.50 C848.12,498.65 848.22,498.80 848.32,498.94 C849.22,500.28 850.18,501.16 850.45,500.88 C851.56,499.77 848.38,470.82 844.46,446.44 C843.81,442.42 843.84,442.37 847.65,441.21 C857.37,438.23 875.59,433.94 877.40,434.21 C879.11,434.46 879.67,435.97 881.21,444.50 C888.53,485.08 889.38,521.60 883.99,563.55 C881.48,583.11 880.19,588.99 878.23,589.74 C876.68,590.34 846.20,583.37 844.77,582.10 C844.38,581.74 845.16,574.34 846.52,565.64 L 846.61 565.08 C848.61,552.30 849.35,547.59 848.49,547.28 C848.24,547.19 847.86,547.46 847.33,548.02 ZM 796.02 362.84 L 795.78 336.00 C795.46,300.32 795.45,300.25 786.96,292.58 C782.43,288.49 780.13,286.93 772.83,286.35 L 779.50 286.50 L 788.27 278.75 C793.09,274.49 797.68,271.00 798.47,271.00 C801.79,271.00 828.28,309.26 841.74,333.51 C851.84,351.69 864.08,380.47 870.05,400.06 C874.27,413.93 874.40,414.64 872.89,415.57 C872.18,416.01 864.48,418.24 855.79,420.53 C844.70,423.44 839.73,424.36 839.13,423.59 C838.65,422.99 837.08,418.32 835.64,413.21 C828.75,388.91 812.68,353.43 799.10,332.50 L 796.50 328.50 L 796.23 347.91 ZM 210.39 287.41 C211.66,293.41 211.92,300.13 212.12,324.31 C212.27,341.48 212.45,353.17 212.82,361.48 C212.57,358.78 212.28,357.00 212.04,357.00 C209.66,357.00 191.69,400.39 187.46,416.35 C186.47,420.12 185.07,423.42 184.36,423.69 C182.29,424.49 153.69,416.67 151.80,414.80 C150.27,413.27 150.23,412.64 151.45,408.80 C152.20,406.43 154.03,400.67 155.51,396.00 C161.59,376.83 175.06,346.94 187.49,325.00 C191.45,318.01 204.56,298.02 209.78,291.01 C210.44,290.11 210.66,289.21 210.39,287.41 ZM 678.89 215.85 C679.91,215.54 680.80,215.26 681.50,215.04 C684.80,214.01 695.38,210.85 705.00,208.03 C714.62,205.20 723.28,202.47 724.24,201.95 C725.19,201.43 726.82,201.00 727.86,201.00 C728.89,201.00 734.41,199.60 740.12,197.90 C741.53,197.48 743.03,197.04 744.53,196.60 C741.89,197.42 736.99,198.90 733.23,199.99 L 725.96 202.10 L 734.23 208.19 C747.71,218.13 758.72,227.59 772.25,240.88 C785.15,253.55 786.40,255.57 783.63,259.22 C781.97,261.41 760.71,279.99 759.87,280.00 C759.52,280.00 757.59,277.99 755.57,275.52 C751.44,270.48 731.05,252.33 718.57,242.58 C709.64,235.61 691.43,223.10 683.69,218.62 ZM 503.50 540.41 C505.70,541.24 508.51,541.93 509.75,541.96 L 512.00 542.00 L 512.00 490.94 C512.00,462.86 511.64,440.11 511.19,440.38 C510.25,440.96 500.71,462.04 488.96,489.50 C486.13,496.10 483.40,502.01 482.89,502.63 C482.38,503.24 480.28,504.01 478.23,504.33 C473.21,505.12 431.45,509.75 421.72,510.60 C417.44,510.98 413.72,511.65 413.44,512.10 C413.16,512.55 416.66,514.03 421.22,515.39 C425.77,516.76 436.48,519.97 445.00,522.53 C453.52,525.10 466.53,528.97 473.91,531.14 C481.28,533.30 487.63,535.27 488.03,535.52 C488.42,535.76 491.16,536.62 494.12,537.43 C497.08,538.24 501.30,539.58 503.50,540.41 ZM 494.12 696.37 L 498.56 696.00 L 501.83 695.77 L 504.79 689.14 C506.42,685.49 508.59,680.14 509.61,677.25 C511.68,671.40 512.49,670.82 513.41,674.50 C513.76,675.88 514.47,677.00 514.99,677.00 C515.51,677.00 515.68,677.67 515.36,678.50 C515.04,679.33 515.33,680.00 516.00,680.00 C516.67,680.00 516.96,680.67 516.64,681.50 C516.32,682.33 516.53,683.00 517.09,683.00 C517.66,683.00 517.84,683.45 517.50,684.00 C517.16,684.55 517.31,685.00 517.84,685.00 C518.92,685.00 521.11,690.55 520.34,691.33 C520.06,691.60 520.32,692.74 520.92,693.85 C521.85,695.59 523.26,695.93 531.25,696.32 C536.34,696.57 541.94,697.10 543.69,697.50 C546.52,698.13 546.75,698.42 545.70,700.11 C545.05,701.15 544.03,702.00 543.42,702.00 C542.82,702.00 541.16,703.24 539.72,704.75 C538.29,706.26 535.28,708.85 533.05,710.50 C532.13,711.18 531.38,711.76 530.81,712.35 C529.30,713.31 528.81,713.92 529.37,717.26 C529.57,719.73 530.47,723.36 532.00,729.28 C533.24,734.12 533.99,738.35 533.65,738.69 C533.31,739.03 530.44,737.56 527.27,735.42 C524.09,733.29 520.38,730.94 519.00,730.21 C517.62,729.48 516.14,728.52 515.69,728.08 C513.99,726.41 507.10,728.86 499.57,733.83 C495.25,736.67 491.33,739.00 490.84,739.00 C490.36,739.00 490.20,737.99 490.48,736.75 C490.77,735.51 492.09,730.00 493.42,724.50 L 495.83 714.50 L 491.17 710.29 C488.60,707.97 485.99,706.06 485.37,706.04 C484.74,706.02 483.48,704.86 482.57,703.47 C481.66,702.08 480.57,701.15 480.16,701.40 C479.74,701.66 478.88,701.03 478.24,700.01 C477.07,698.14 477.72,697.58 485.69,696.91 C488.06,696.82 490.92,696.64 494.12,696.37 ZM 673.52 681.80 C673.43,681.89 673.76,682.96 674.36,684.58 C674.70,685.75 675.50,687.77 676.83,691.00 L 679.51 697.50 L 684.51 698.09 C686.68,698.35 689.96,698.59 692.60,698.69 C696.86,699.17 700.00,699.77 700.00,700.15 C700.00,700.60 696.59,703.77 692.42,707.19 C686.52,712.03 684.95,713.87 685.32,715.46 C685.59,716.58 686.52,720.11 687.40,723.30 C689.37,730.44 689.51,734.44 687.75,733.32 C686.57,732.57 686.12,732.42 684.19,732.12 C683.74,732.06 682.50,731.21 681.44,730.24 C674.14,723.62 670.99,723.20 663.57,727.87 C660.23,729.97 656.47,732.23 655.22,732.90 C653.12,734.01 652.97,733.92 653.42,731.80 C653.68,730.54 654.70,725.94 655.67,721.59 L 657.44 713.68 L 650.47 707.35 C646.64,703.87 643.16,701.01 642.75,701.01 C642.34,701.00 642.00,700.61 642.00,700.14 C642.00,699.67 645.75,699.05 650.34,698.76 C654.93,698.48 659.57,697.76 660.66,697.18 C661.75,696.60 663.48,694.18 664.51,691.81 C665.54,689.44 667.45,685.60 668.77,683.28 C670.69,679.88 671.41,679.30 672.48,680.28 C673.20,680.95 673.67,681.64 673.52,681.80 ZM 578.32 698.16 L 578.83 698.09 C580.88,697.89 582.37,697.68 582.89,697.53 L 583.13 697.50 L 583.22 697.28 C583.85,696.39 585.48,692.67 587.07,688.45 C588.84,683.77 590.61,679.74 591.01,679.50 C591.47,679.21 593.96,683.82 596.26,688.87 C596.52,689.53 596.79,690.19 597.06,690.84 L 598.92 695.24 C598.99,695.43 599.06,695.60 599.13,695.76 L 599.87 697.50 L 602.25 697.79 C603.29,698.00 604.71,698.16 606.67,698.34 C607.29,698.40 607.95,698.46 608.62,698.51 C609.63,698.60 610.59,698.67 611.49,698.73 C613.91,698.89 616.18,699.00 617.50,699.01 L 621.50 699.03 L 613.62 706.27 L 605.74 713.52 L 605.78 713.74 L 606.49 718.01 C606.69,719.18 606.96,720.31 607.24,721.20 L 607.49 722.50 L 607.53 722.02 C607.74,722.57 607.96,722.95 608.14,723.07 C608.63,723.38 609.19,725.95 609.39,728.79 C609.41,729.10 609.43,729.40 609.45,729.68 C609.60,731.54 609.68,732.67 609.20,733.02 C608.74,733.36 607.75,732.97 605.79,731.83 C605.53,731.66 605.25,731.49 604.95,731.32 C603.55,730.47 601.73,729.32 599.39,727.84 C598.39,727.21 597.39,726.61 596.46,726.09 C594.95,724.92 593.22,724.00 592.52,724.00 C592.47,724.00 592.40,724.01 592.30,724.04 C592.21,724.01 592.13,724.00 592.07,724.00 C591.41,724.00 587.63,725.95 583.68,728.33 C583.11,728.67 582.57,728.99 582.06,729.30 C577.23,732.22 574.98,733.58 574.20,732.99 C573.51,732.48 573.96,730.46 574.80,726.67 C574.90,726.22 575.00,725.73 575.12,725.22 C576.15,720.48 577.00,716.11 577.00,715.51 C577.00,714.20 569.27,705.50 568.11,705.50 C567.66,705.50 566.12,704.10 564.68,702.40 L 562.07 699.30 L 568.96 698.84 C571.83,698.80 575.31,698.58 578.32,698.16 ZM 424.19 697.21 C424.57,696.83 425.36,695.04 426.20,692.88 C426.91,691.22 427.74,689.23 428.57,687.13 L 432.31 677.76 L 433.94 681.13 C434.84,682.98 436.84,687.50 438.40,691.16 L 439.16 692.96 L 441.24 697.90 L 446.37 698.27 C449.87,698.51 452.54,698.68 454.52,698.75 C458.83,699.13 461.99,699.58 461.98,699.87 C461.96,700.22 460.19,701.80 458.04,703.40 C455.88,704.99 452.42,708.03 450.35,710.15 C449.75,710.77 449.24,711.29 448.82,711.74 L 446.61 713.72 L 447.30 716.58 C447.35,716.79 447.40,717.01 447.46,717.24 L 447.97 719.36 C448.12,720.00 448.28,720.62 448.43,721.20 C448.77,722.83 449.00,724.31 449.00,725.01 C449.00,726.11 449.48,727.00 450.07,727.00 C450.70,727.00 450.86,727.86 450.46,729.12 C450.06,730.39 450.28,731.55 451.00,732.00 C451.72,732.44 451.82,732.99 451.26,733.34 C450.73,733.66 446.67,731.70 442.24,728.97 C437.80,726.23 433.68,724.00 433.08,724.00 C433.03,724.00 432.98,724.00 432.92,724.01 C432.89,724.00 432.86,724.00 432.84,724.00 C432.72,724.00 432.49,724.07 432.18,724.20 C430.31,724.84 426.45,726.96 421.50,730.11 C414.78,734.37 414.19,734.38 415.01,730.16 C415.40,728.15 416.18,724.70 416.76,722.50 C417.66,719.03 418.28,716.95 418.32,715.38 C418.40,715.20 418.47,715.05 418.54,714.94 C418.68,714.71 418.48,714.24 418.02,713.60 C417.34,711.88 415.39,710.40 411.47,707.11 C407.36,703.65 404.00,700.48 404.00,700.06 C404.00,699.64 408.38,698.99 413.74,698.61 C416.58,698.41 419.24,698.14 421.16,697.87 C422.83,697.65 423.98,697.42 424.19,697.21 ZM 339.00 714.41 C339.00,714.40 339.00,714.39 339.00,714.38 C339.00,714.36 339.00,714.34 339.00,714.32 C339.00,714.22 338.85,713.99 338.57,713.67 C337.53,712.36 334.75,709.72 331.50,707.00 C327.38,703.55 324.00,700.39 324.00,699.98 C324.00,699.57 328.66,698.92 334.35,698.53 L 344.70 697.83 L 348.50 688.44 C350.58,683.28 352.61,679.26 352.99,679.50 C353.64,679.90 359.16,692.40 360.32,696.10 C360.44,696.48 360.95,696.84 361.77,697.17 C362.62,697.95 363.63,698.10 365.50,698.28 C366.22,698.34 366.94,698.40 367.65,698.46 C370.34,698.80 373.57,699.00 376.98,699.00 C379.01,699.00 380.93,699.27 381.26,699.59 C381.59,699.92 378.51,703.10 374.43,706.66 C370.34,710.22 367.00,713.38 367.00,713.67 C367.00,713.97 367.63,716.75 368.40,719.86 C370.83,729.70 371.16,733.67 369.53,733.67 C368.74,733.67 367.84,733.04 367.55,732.27 C367.26,731.50 366.56,731.15 366.01,731.50 C365.45,731.84 365.00,731.64 365.00,731.06 C365.00,730.48 364.33,730.00 363.50,730.00 C362.67,730.00 362.00,729.65 362.00,729.22 C362.00,727.94 356.17,724.88 352.99,724.47 C351.00,724.22 349.63,724.68 348.77,725.87 C347.81,727.21 335.83,734.00 334.43,734.00 C334.30,734.00 334.43,732.99 334.72,731.75 C335.01,730.51 336.09,726.36 337.12,722.52 C338.16,718.68 339.00,715.03 339.00,714.41 ZM 490.53 132.63 C483.60,134.57 478.14,136.00 477.35,136.00 C476.09,136.00 473.59,136.65 471.78,137.44 C468.58,138.85 464.20,140.20 439.50,147.41 C432.90,149.33 413.10,155.25 395.50,160.57 C377.90,165.88 360.35,171.02 356.50,171.99 C352.65,172.96 342.98,175.81 335.00,178.33 L 334.63 178.44 C338.61,177.09 341.51,175.94 342.04,175.46 C344.03,173.66 362.74,164.89 375.00,160.01 C404.32,148.34 443.66,138.74 471.50,136.47 C476.25,136.08 481.87,134.97 490.53,132.63 ZM 736.37 285.50 L 757.86 286.00 C757.56,286.00 757.26,286.00 756.95,286.00 L 756.48 286.00 L 736.89 286.00 ZM 213.30 369.37 C213.93,376.62 214.89,380.23 216.45,383.71 L 219.16 389.76 L 216.41 383.63 C214.35,379.05 213.69,376.19 213.30,369.37 ZM 502.30 129.27 C513.89,125.83 523.52,122.81 523.81,122.52 C523.35,122.98 513.08,126.13 502.30,129.27 ZM 323.96 181.78 C316.17,184.19 309.78,186.12 304.86,187.53 C309.77,186.04 317.48,183.71 323.96,181.78 ZM 673.64 795.09 L 657.92 795.23 L 658.11 795.14 ZM 207.31 269.00 C207.04,265.16 206.74,262.80 206.20,261.06 C206.74,262.80 207.05,265.17 207.33,269.00 C207.62,272.89 208.47,278.62 209.36,282.91 C208.53,279.54 207.63,273.45 207.31,269.00 ZM 829.16 563.39 L 833.98 560.20 C835.74,559.03 837.46,557.77 839.06,556.48 C837.30,557.92 835.43,559.31 833.72,560.42 ZM 423.54 818.03 C406.56,812.99 390.36,806.69 375.64,799.31 C390.39,806.69 406.58,812.99 423.54,818.03 ZM 836.04 486.95 C834.75,486.02 833.47,485.17 832.25,484.46 C831.50,484.03 830.92,483.63 830.47,483.24 C831.04,483.72 831.82,484.22 832.89,484.82 C833.78,485.32 834.86,486.06 836.04,486.95 ZM 773.38 182.87 C771.48,185.09 769.34,186.98 766.92,188.58 C769.34,186.97 771.49,185.07 773.38,182.87 ZM 293.07 190.34 C293.06,190.34 293.06,190.34 293.05,190.33 C292.75,190.00 293.08,189.52 293.79,189.27 C293.08,189.52 292.76,190.00 293.07,190.34 Z" fill="rgb(207,166,80)"/>
<path d="M 0.00 512.00 L 0.00 0.00 L 512.00 0.00 L 1024.00 0.00 L 1024.00 512.00 L 1024.00 1024.00 L 512.00 1024.00 L 0.00 1024.00 L 0.00 512.00 ZM 552.00 942.36 C601.46,937.56 648.18,924.00 695.45,900.72 C717.10,890.06 727.89,883.82 747.04,870.88 C819.08,822.18 875.13,752.82 906.44,673.61 C927.42,620.54 937.26,569.55 937.35,513.50 C937.45,445.86 922.31,382.44 891.93,323.18 C863.32,267.39 827.29,220.89 785.71,186.08 L 776.93 178.72 L 773.38 182.87 C769.03,187.95 763.25,191.43 756.00,193.35 C752.97,194.14 745.83,196.19 740.12,197.90 C734.41,199.60 728.89,201.00 727.86,201.00 C726.82,201.00 725.19,201.43 724.24,201.95 C723.28,202.47 714.62,205.20 705.00,208.03 C695.38,210.85 684.80,214.01 681.50,215.04 C678.20,216.08 670.78,218.32 665.00,220.02 C659.22,221.72 653.86,223.33 653.08,223.59 C652.29,223.86 656.49,226.74 662.58,230.11 C686.01,243.08 710.08,260.50 727.69,277.25 L 736.89 286.00 L 756.48 286.00 C778.36,286.00 780.09,286.37 786.96,292.58 C795.45,300.25 795.46,300.32 795.78,336.00 L 796.06 367.50 L 802.90 383.00 C810.39,399.94 817.37,420.36 821.97,438.71 C825.09,451.19 829.00,473.73 829.00,479.27 C829.00,481.94 829.62,482.93 832.25,484.46 C839.53,488.69 848.74,497.73 849.42,501.31 C849.54,501.96 850.38,504.19 851.27,506.25 C855.83,516.76 855.62,529.59 850.73,540.27 C849.42,543.15 848.21,545.95 848.06,546.50 C847.21,549.48 840.89,555.63 833.98,560.20 L 826.14 565.38 L 825.02 571.94 C821.76,591.03 811.58,622.71 801.64,644.70 L 796.29 656.52 L 795.57 693.51 C794.74,736.34 794.12,741.05 787.39,754.82 C779.16,771.68 760.66,787.57 744.12,791.98 C734.64,794.51 727.45,794.94 693.42,795.04 L 658.11 795.14 L 649.80 799.18 C600.66,823.06 544.87,834.65 495.70,831.18 C453.53,828.21 410.46,816.76 375.51,799.25 L 366.53 794.74 L 353.01 795.37 C332.91,796.30 288.91,794.52 281.50,792.48 C256.89,785.69 236.04,763.47 230.89,738.55 C229.27,730.70 229.02,724.71 229.01,693.37 L 229.00 657.25 L 224.40 647.37 C210.17,616.79 200.99,585.85 196.39,553.00 C193.00,528.80 193.54,489.53 197.60,464.08 C201.04,442.57 211.57,404.69 217.20,393.63 L 219.16 389.76 L 216.45 383.71 C213.09,376.21 212.49,368.08 212.12,324.31 C211.89,297.30 211.60,292.08 209.91,285.31 C208.83,281.01 207.67,273.67 207.33,269.00 C206.82,262.12 206.25,259.96 204.35,257.67 C203.06,256.12 202.00,254.41 202.00,253.88 C202.00,253.35 203.96,250.80 206.35,248.21 C208.75,245.62 212.58,239.87 214.87,235.43 C221.56,222.46 231.24,212.99 244.89,206.05 C247.30,204.82 252.14,201.39 255.65,198.41 C259.16,195.43 262.84,193.00 263.84,193.00 C264.84,193.00 266.65,194.07 267.88,195.37 L 270.10 197.74 L 278.30 195.25 C282.81,193.88 286.67,192.60 286.88,192.41 C287.09,192.22 285.90,190.51 284.22,188.60 C279.54,183.27 279.20,181.06 282.62,178.25 C285.81,175.63 292.37,172.00 293.91,172.00 C295.22,172.00 301.00,180.44 301.00,182.34 C301.00,183.82 296.23,188.40 293.79,189.27 C293.08,189.52 292.75,190.00 293.05,190.33 C293.61,190.95 308.39,186.72 335.00,178.33 C342.98,175.81 352.65,172.96 356.50,171.99 C360.35,171.02 377.90,165.88 395.50,160.57 C413.10,155.25 432.90,149.33 439.50,147.41 C464.20,140.20 468.58,138.85 471.78,137.44 C473.59,136.65 476.09,136.00 477.35,136.00 C479.68,136.00 522.86,123.48 523.81,122.52 C524.10,122.24 522.96,122.00 521.29,122.00 C516.96,122.00 515.85,120.10 516.20,113.33 L 516.50 107.50 L 522.97 107.20 C533.49,106.70 534.00,107.02 534.00,113.93 L 534.00 119.82 L 539.25 118.27 C549.63,115.22 551.46,114.31 552.04,111.87 C552.58,109.60 552.99,109.50 561.55,109.44 C568.92,109.39 572.53,108.74 582.00,105.77 C588.33,103.79 596.82,101.19 600.87,100.01 C604.97,98.80 607.86,97.47 607.37,96.99 C606.21,95.86 584.24,91.45 570.50,89.60 C537.55,85.15 490.07,84.87 459.50,88.95 C412.05,95.26 371.83,107.35 329.00,128.16 C284.86,149.59 251.12,173.21 217.14,206.44 C161.21,261.14 117.22,337.80 99.45,411.50 C80.03,492.09 83.42,571.37 109.66,650.00 C119.48,679.42 127.95,698.60 143.24,725.97 C178.29,788.73 238.67,849.75 301.52,885.92 C381.05,931.69 465.60,950.74 552.00,942.36 ZM 735.75 777.50 C745.48,775.20 755.30,769.74 762.33,762.71 C769.38,755.65 772.82,750.24 776.17,740.96 L 778.50 734.50 L 779.00 651.04 L 779.50 567.59 L 801.50 554.96 C826.49,540.61 831.97,536.14 833.89,528.54 C835.96,520.29 833.17,510.80 827.22,505.88 C825.64,504.57 814.14,497.66 801.67,490.52 L 779.00 477.54 L 779.00 394.22 C779.00,305.83 779.03,306.38 774.46,304.62 C773.56,304.28 677.29,304.00 560.52,304.00 L 348.21 304.00 L 345.03 300.38 C343.28,298.38 342.22,296.42 342.67,296.00 C343.13,295.59 353.17,292.46 365.00,289.04 C376.83,285.62 389.20,282.00 392.50,280.98 C395.80,279.96 407.95,276.36 419.50,272.98 C431.05,269.61 448.60,264.42 458.50,261.47 C468.40,258.51 487.98,252.74 502.00,248.65 C516.03,244.55 534.92,238.95 544.00,236.21 C553.08,233.46 574.67,227.07 592.00,221.99 C639.18,208.18 736.11,179.31 747.49,175.68 C756.12,172.93 757.79,172.04 759.74,169.10 C760.98,167.23 762.00,164.63 762.00,163.32 C762.00,159.03 750.09,118.93 747.26,113.70 C738.98,98.41 721.57,88.90 704.46,90.35 C700.59,90.67 691.59,92.72 684.46,94.90 C677.33,97.08 655.97,103.44 637.00,109.03 C618.03,114.62 589.22,123.14 573.00,127.96 C556.78,132.78 536.97,138.62 529.00,140.94 C521.03,143.25 511.12,146.21 507.00,147.50 C497.35,150.52 439.99,167.49 387.00,183.00 C326.37,200.74 312.19,204.92 305.50,207.03 C302.20,208.07 290.22,211.60 278.88,214.88 C250.26,223.15 242.91,227.20 234.63,239.27 C226.86,250.59 224.82,266.06 229.00,282.00 C230.80,288.87 230.97,292.99 230.98,331.28 C231.00,364.44 231.28,373.74 232.37,376.35 C234.15,380.61 239.52,386.70 243.15,388.58 L 246.00 390.05 L 246.00 560.63 C246.00,748.67 245.59,736.29 252.20,749.42 C258.47,761.86 274.20,773.91 288.79,777.45 C297.64,779.59 726.66,779.64 735.75,777.50 ZM 486.20 921.80 C484.64,920.24 484.64,911.76 486.20,910.20 C486.93,909.47 490.44,909.00 495.09,909.00 C501.19,909.00 502.91,909.33 503.39,910.58 C504.30,912.94 504.13,917.54 503.02,920.43 C502.10,922.87 501.67,923.00 494.72,923.00 C490.36,923.00 486.91,922.51 486.20,921.80 ZM 522.20 921.80 C521.54,921.14 521.00,918.53 521.00,916.00 C521.00,913.47 521.54,910.86 522.20,910.20 C523.61,908.79 537.60,908.54 538.45,909.92 C538.76,910.42 539.29,912.81 539.62,915.23 C540.49,921.56 538.72,923.00 530.13,923.00 C526.23,923.00 522.90,922.50 522.20,921.80 ZM 558.72 919.57 C557.61,918.74 556.71,916.32 556.34,913.22 C555.62,907.15 556.40,906.54 566.13,905.50 C573.58,904.71 573.89,904.91 575.07,911.41 C576.13,917.19 574.96,918.69 568.77,919.48 C565.87,919.84 562.83,920.32 562.00,920.53 C561.17,920.74 559.70,920.31 558.72,919.57 ZM 454.16 919.01 C449.12,917.81 448.58,916.84 449.60,910.80 L 450.51 905.50 L 458.45 905.75 C462.83,905.89 466.84,906.44 467.36,906.96 C468.64,908.24 468.27,916.97 466.86,918.66 C465.66,920.12 459.55,920.28 454.16,919.01 ZM 421.46 912.63 C418.69,911.94 415.83,911.01 415.10,910.56 C413.48,909.56 414.12,901.77 416.00,899.50 C417.51,897.68 422.05,897.60 427.73,899.30 C433.95,901.16 434.35,901.85 432.82,908.12 C431.30,914.30 430.13,914.77 421.46,912.63 ZM 593.13 912.25 C591.23,908.69 590.68,902.51 592.15,901.29 C593.97,899.79 605.30,897.52 607.24,898.26 C609.27,899.04 611.36,905.44 610.59,908.51 C609.95,911.04 606.58,912.45 598.35,913.64 C594.87,914.15 594.03,913.92 593.13,912.25 ZM 387.13 902.53 C383.63,901.23 380.34,899.74 379.81,899.21 C378.49,897.89 379.86,891.39 382.04,888.72 L 383.84 886.50 L 391.17 889.00 L 398.50 891.50 L 398.33 896.33 C398.23,899.32 397.50,901.90 396.43,903.08 C394.33,905.39 394.94,905.43 387.13,902.53 ZM 628.61 903.47 C626.40,901.26 624.88,895.09 626.02,892.96 C627.14,890.88 635.01,888.00 639.58,888.00 C642.30,888.00 642.98,888.50 643.90,891.15 C645.38,895.38 645.29,898.52 643.64,899.88 C642.58,900.77 631.63,905.00 630.41,905.00 C630.27,905.00 629.45,904.31 628.61,903.47 ZM 353.50 889.09 C345.01,885.19 344.38,884.19 346.88,878.55 C347.99,876.03 349.64,873.69 350.54,873.35 C352.20,872.71 363.30,877.45 365.03,879.54 C366.40,881.19 363.88,889.01 361.49,890.56 C359.79,891.66 358.64,891.45 353.50,889.09 ZM 661.07 888.13 C657.45,881.04 658.05,879.45 665.64,876.01 C669.29,874.35 672.91,873.00 673.69,873.00 C675.35,873.00 679.28,881.29 678.81,883.79 C678.47,885.58 670.41,890.37 665.82,891.51 C663.43,892.11 662.91,891.74 661.07,888.13 ZM 320.18 872.39 C316.71,870.42 313.63,868.19 313.34,867.44 C312.47,865.18 317.25,857.54 319.75,857.18 C322.02,856.86 331.15,861.27 333.12,863.65 C333.91,864.59 333.90,865.86 333.08,868.19 C332.02,871.23 328.33,876.02 327.08,875.98 C326.76,875.98 323.66,874.36 320.18,872.39 ZM 695.25 874.25 C692.85,872.12 690.57,866.56 691.31,864.64 C692.03,862.76 702.21,857.00 704.79,857.00 C707.07,857.00 710.80,862.24 711.23,866.03 C711.45,867.97 710.37,869.04 705.00,872.19 C701.43,874.29 698.22,876.00 697.87,876.00 C697.51,876.00 696.33,875.21 695.25,874.25 ZM 289.25 853.42 C282.08,848.57 281.56,847.31 284.62,842.18 C286.56,838.93 287.71,838.00 289.80,838.00 C293.46,838.00 303.00,844.67 303.00,847.23 C303.00,849.54 297.38,857.01 295.67,856.98 C295.02,856.97 292.14,855.37 289.25,853.42 ZM 726.78 855.75 C723.77,853.41 721.04,847.79 722.03,845.95 C723.37,843.43 732.31,838.00 735.09,838.01 C738.04,838.02 742.31,843.79 741.83,847.12 C741.62,848.53 739.43,850.81 736.00,853.19 C729.97,857.37 729.14,857.59 726.78,855.75 ZM 259.59 831.45 C255.85,828.39 254.00,826.16 254.00,824.67 C254.00,821.74 259.31,816.00 262.01,816.00 C264.68,816.00 274.00,823.74 274.00,825.96 C274.00,828.18 268.16,836.00 266.51,836.00 C265.78,836.00 262.67,833.95 259.59,831.45 ZM 754.07 832.27 C749.78,827.06 750.10,824.94 755.89,820.09 C762.19,814.82 765.07,814.74 768.46,819.73 C769.86,821.78 771.00,824.20 771.00,825.11 C771.00,826.92 760.55,836.00 758.46,836.00 C757.74,836.00 755.76,834.32 754.07,832.27 ZM 232.22 806.72 C229.35,803.81 227.00,800.72 227.00,799.83 C227.00,798.07 234.32,791.00 236.15,791.00 C238.40,791.00 247.00,800.64 247.00,803.16 C247.00,805.85 241.37,812.00 238.92,812.00 C238.10,812.00 235.08,809.62 232.22,806.72 ZM 780.58 807.82 C778.61,805.52 777.00,803.14 777.00,802.54 C777.00,800.83 787.36,791.00 789.17,791.00 C790.80,791.00 798.00,798.27 798.00,799.92 C798.00,801.72 787.77,812.00 785.98,812.00 C784.98,812.00 782.55,810.12 780.58,807.82 ZM 207.59 780.89 C205.05,778.07 203.00,774.79 203.00,773.57 C203.00,769.92 210.66,764.12 213.38,765.71 C215.62,767.02 223.00,776.03 223.00,777.44 C223.00,779.13 215.45,786.00 213.59,786.00 C212.82,786.00 210.12,783.70 207.59,780.89 ZM 806.07 782.44 C803.83,780.42 802.00,778.01 802.00,777.09 C802.00,774.97 811.13,765.00 813.06,765.01 C814.96,765.02 822.00,771.73 822.00,773.53 C822.00,775.50 813.72,785.43 811.76,785.81 C810.87,785.98 808.31,784.47 806.07,782.44 ZM 186.77 754.41 C180.19,747.20 179.61,744.34 183.99,740.66 C189.14,736.33 191.02,736.26 194.46,740.27 C196.13,742.21 198.28,745.14 199.24,746.78 C200.91,749.66 200.90,749.86 198.90,752.40 C197.11,754.68 192.17,758.00 190.57,758.00 C190.28,758.00 188.58,756.39 186.77,754.41 ZM 829.20 755.27 C823.73,751.73 823.19,749.76 826.42,745.18 C832.15,737.06 832.58,736.68 835.29,737.36 C838.73,738.22 844.00,742.77 844.00,744.88 C844.00,746.98 836.03,758.00 834.51,758.00 C833.90,758.00 831.51,756.77 829.20,755.27 ZM 166.67 724.75 C163.91,721.06 161.00,715.59 161.00,714.09 C161.00,712.55 169.36,708.00 172.20,708.00 C174.25,708.00 175.30,709.09 177.86,713.89 C179.59,717.13 181.00,720.49 181.00,721.35 C181.00,723.05 173.34,728.00 170.71,728.00 C169.83,728.00 168.01,726.54 166.67,724.75 ZM 849.00 725.91 C842.84,722.24 842.64,721.42 846.27,714.75 C850.41,707.17 851.85,706.38 856.88,708.94 C860.94,711.01 864.00,713.58 864.00,714.92 C864.00,715.34 862.21,718.46 860.02,721.84 C855.63,728.63 854.36,729.10 849.00,725.91 ZM 151.97 696.03 C151.13,695.55 149.12,692.39 147.51,689.02 C145.28,684.36 144.83,682.49 145.62,681.24 C146.97,679.10 155.49,675.59 157.48,676.35 C159.39,677.09 164.18,687.76 163.79,690.42 C163.31,693.69 154.86,697.71 151.97,696.03 ZM 866.50 695.15 C859.65,692.01 859.34,691.01 862.85,683.51 C864.53,679.91 866.53,676.73 867.29,676.44 C869.28,675.68 878.09,679.18 879.39,681.26 C880.28,682.67 879.80,684.37 877.00,689.76 C875.08,693.47 872.83,696.61 872.00,696.74 C871.17,696.87 868.70,696.16 866.50,695.15 ZM 136.68 662.19 C135.76,661.19 134.11,657.74 133.01,654.53 C130.59,647.51 131.03,646.72 138.71,644.30 C144.02,642.63 144.26,642.63 145.58,644.44 C147.46,647.02 150.25,656.92 149.58,658.66 C149.07,659.99 145.42,661.87 140.42,663.39 C139.05,663.81 137.77,663.40 136.68,662.19 ZM 880.03 661.93 C877.57,660.81 875.25,659.41 874.89,658.82 C874.09,657.53 877.70,646.09 879.51,644.15 C880.58,643.01 881.69,643.06 886.44,644.44 C889.55,645.34 892.36,646.77 892.68,647.62 C893.42,649.53 890.09,660.77 888.23,662.62 C886.42,664.43 885.35,664.34 880.03,661.93 ZM 124.20 627.38 C122.46,624.12 120.63,612.97 121.67,611.93 C123.29,610.31 133.86,608.46 135.00,609.60 C136.13,610.73 139.00,621.06 139.00,624.01 C139.00,626.48 136.17,627.96 130.07,628.68 C125.98,629.16 125.05,628.96 124.20,627.38 ZM 890.00 627.69 C886.99,626.67 886.46,626.01 886.22,623.00 C885.86,618.47 888.07,610.99 890.16,609.67 C892.22,608.37 902.60,610.51 903.32,612.39 C903.95,614.02 901.19,626.07 899.80,627.74 C898.51,629.29 894.64,629.27 890.00,627.69 ZM 116.13 592.25 C114.77,589.70 112.97,579.24 113.61,577.57 C114.31,575.74 115.99,575.14 122.53,574.37 C128.55,573.66 128.04,573.03 129.93,583.48 C131.05,589.68 130.09,591.60 125.24,592.95 C119.85,594.45 117.20,594.24 116.13,592.25 ZM 899.69 592.98 C894.68,591.48 893.76,590.09 894.47,585.06 C894.82,582.55 895.59,578.98 896.17,577.13 L 897.24 573.75 L 902.53 574.38 C910.53,575.31 911.00,575.65 910.98,580.36 C910.94,585.98 909.43,592.11 907.82,593.13 C906.21,594.15 903.42,594.10 899.69,592.98 ZM 110.56 555.78 C109.53,554.31 109.00,551.30 109.00,546.88 C109.00,539.17 109.19,539.00 118.01,539.00 C124.64,539.00 124.46,538.76 125.51,548.60 C126.35,556.47 125.05,558.00 117.49,558.00 C113.07,558.00 111.84,557.61 110.56,555.78 ZM 901.09 556.35 C898.93,554.84 898.79,554.20 899.31,548.59 C900.20,539.08 900.27,539.00 907.48,539.00 C915.65,539.00 916.48,539.97 915.67,548.64 C915.33,552.26 914.54,555.85 913.90,556.62 C912.29,558.56 904.00,558.39 901.09,556.35 ZM 108.65 520.17 C107.52,518.92 107.00,516.54 107.00,512.61 C107.00,503.94 107.83,503.00 115.50,503.00 C123.11,503.00 124.00,503.97 124.00,512.21 C124.00,519.95 122.24,522.00 115.60,522.00 C111.75,522.00 109.86,521.50 108.65,520.17 ZM 902.57 520.43 C901.45,519.30 901.00,516.90 901.00,511.96 C901.00,503.69 902.06,502.75 910.78,503.20 L 916.50 503.50 L 916.79 511.34 C916.98,516.27 916.65,519.71 915.92,520.59 C914.26,522.59 904.61,522.47 902.57,520.43 ZM 110.20 484.80 C108.76,483.36 108.61,473.16 109.98,469.57 C110.88,467.18 111.40,467.00 117.35,467.00 C121.45,467.00 124.15,467.48 124.86,468.33 C126.15,469.88 125.27,482.81 123.74,484.75 C122.47,486.36 111.80,486.40 110.20,484.80 ZM 901.15 484.68 C899.46,482.64 898.47,469.44 899.94,468.54 C900.60,468.13 903.85,467.55 907.17,467.25 C911.57,466.85 913.42,467.06 914.02,468.02 C915.57,470.54 916.30,482.94 914.98,484.52 C913.38,486.45 902.71,486.56 901.15,484.68 ZM 116.39 450.02 C115.23,449.55 114.01,448.46 113.67,447.59 C112.92,445.63 114.81,434.95 116.21,433.25 C118.15,430.90 129.44,432.09 130.46,434.75 C131.17,436.61 129.10,448.01 127.73,449.75 C126.63,451.15 119.61,451.32 116.39,450.02 ZM 896.04 448.59 C895.53,447.27 894.81,443.48 894.44,440.17 L 893.76 434.16 L 897.63 433.09 C899.76,432.49 903.18,432.01 905.23,432.01 C908.28,432.00 909.05,432.41 909.47,434.25 C912.88,449.26 912.04,450.95 901.23,450.99 C897.62,451.00 896.81,450.62 896.04,448.59 ZM 127.59 415.17 C120.73,412.84 120.18,411.55 122.57,403.32 L 124.55 396.50 L 129.61 396.63 C132.39,396.69 135.70,397.30 136.96,397.98 C139.02,399.08 139.19,399.71 138.66,404.20 C138.04,409.43 135.21,416.23 133.50,416.61 C132.95,416.73 130.29,416.08 127.59,415.17 ZM 889.61 414.69 C886.76,411.83 884.33,401.51 886.03,399.47 C887.38,397.83 893.23,396.01 897.15,396.01 C899.57,396.00 899.99,396.62 901.93,403.01 C904.54,411.59 903.97,412.99 896.98,415.22 C891.89,416.85 891.75,416.84 889.61,414.69 ZM 138.61 381.44 C131.04,378.65 130.51,376.78 134.81,368.00 C137.96,361.56 139.53,361.01 146.44,363.97 C151.05,365.95 151.23,366.18 150.71,369.38 C149.93,374.19 145.76,382.47 144.00,382.69 C143.18,382.80 140.75,382.23 138.61,381.44 ZM 877.64 380.75 C876.86,379.51 875.44,376.06 874.47,373.07 C872.73,367.66 872.73,367.64 874.96,365.83 C877.71,363.60 884.34,361.53 886.31,362.29 C887.11,362.59 889.01,366.02 890.53,369.89 C893.75,378.10 893.42,378.99 886.26,381.43 C880.20,383.49 879.31,383.42 877.64,380.75 ZM 151.70 348.41 C149.06,347.04 146.65,345.26 146.35,344.47 C145.54,342.35 150.13,331.96 152.60,330.34 C154.45,329.13 155.29,329.20 159.13,330.84 C166.16,333.85 166.75,335.13 163.90,341.22 C161.38,346.61 158.33,351.03 157.18,350.95 C156.80,350.93 154.34,349.78 151.70,348.41 ZM 865.97 350.04 C863.81,348.78 858.60,337.49 859.31,335.63 C860.08,333.63 869.78,328.70 871.58,329.39 C872.34,329.69 874.35,332.85 876.04,336.43 C879.72,344.22 879.22,345.92 872.36,348.96 C869.82,350.08 867.69,350.99 867.62,350.97 C867.56,350.95 866.81,350.54 865.97,350.04 ZM 169.50 318.35 C166.06,316.52 162.00,313.02 162.00,311.88 C162.00,311.45 163.60,308.38 165.55,305.05 C168.55,299.93 169.53,299.00 171.90,299.00 C174.99,299.00 183.04,304.29 182.94,306.26 C182.83,308.47 175.51,319.47 173.98,319.71 C173.17,319.84 171.15,319.23 169.50,318.35 ZM 846.04 314.05 C840.68,306.16 840.79,304.65 846.97,301.52 C849.70,300.13 852.61,299.00 853.44,299.00 C855.41,299.00 862.00,308.82 862.00,311.76 C862.00,313.39 860.66,314.89 857.30,317.02 C854.72,318.66 852.04,320.00 851.34,320.00 C850.64,320.00 848.26,317.32 846.04,314.05 ZM 186.10 287.96 C183.79,286.29 181.67,284.30 181.38,283.54 C180.26,280.64 188.01,270.00 191.23,270.00 C193.46,270.00 202.00,276.47 202.00,278.16 C202.00,280.27 193.65,291.00 192.01,291.00 C191.07,291.00 188.41,289.63 186.10,287.96 ZM 827.08 285.25 C824.84,282.09 823.00,278.79 823.00,277.92 C823.00,275.65 830.42,270.00 833.39,270.00 C835.29,270.00 836.87,271.37 839.98,275.71 C842.23,278.85 843.94,282.09 843.78,282.91 C843.39,284.93 835.30,291.00 833.00,291.00 C831.90,291.00 829.52,288.69 827.08,285.25 ZM 811.38 263.21 C808.99,261.67 802.00,252.78 802.00,251.28 C802.00,249.43 809.48,242.00 811.36,242.00 C813.83,242.00 822.00,251.22 822.00,254.01 C822.00,257.69 813.82,264.78 811.38,263.21 ZM 783.50 233.53 L 777.50 228.18 L 779.45 224.52 C781.49,220.68 785.80,217.00 788.26,217.00 C789.06,217.00 792.04,219.47 794.90,222.49 C799.13,226.96 799.90,228.30 799.07,229.74 C797.33,232.76 794.60,235.69 792.00,237.32 C789.57,238.84 789.34,238.75 783.50,233.53 ZM 758.13 210.91 C751.64,205.75 751.32,204.08 755.67,198.36 C759.25,193.67 761.40,193.31 766.14,196.60 C772.17,200.77 774.20,203.73 772.86,206.36 C771.31,209.38 765.83,215.00 764.43,215.00 C763.79,215.00 760.95,213.16 758.13,210.91 ZM 316.15 172.39 C313.42,170.48 311.00,165.86 311.00,162.56 C311.00,160.47 312.04,159.50 316.97,157.01 C320.26,155.36 323.64,154.00 324.49,154.00 C326.15,154.00 329.66,159.03 330.65,162.84 C331.37,165.59 329.65,167.47 322.90,171.30 C318.69,173.69 318.13,173.78 316.15,172.39 ZM 346.75 156.25 C344.54,153.76 341.84,146.85 342.46,145.25 C343.11,143.55 353.26,139.00 356.41,139.00 C358.28,139.00 359.20,140.04 360.95,144.10 C362.15,146.90 362.89,149.84 362.59,150.63 C362.18,151.70 350.19,158.00 348.56,158.00 C348.42,158.00 347.61,157.21 346.75,156.25 ZM 377.68 140.75 C375.65,135.88 375.00,132.62 375.79,131.34 C376.71,129.85 389.66,125.66 391.34,126.30 C392.79,126.86 395.00,133.46 395.00,137.23 C395.00,139.33 394.13,140.05 389.41,141.86 C381.47,144.90 379.32,144.70 377.68,140.75 ZM 412.25 132.80 C411.64,132.07 410.60,129.31 409.94,126.66 C408.94,122.69 408.97,121.62 410.11,120.55 C411.75,119.03 419.62,117.00 423.90,117.00 C426.59,117.00 427.04,117.45 428.02,121.08 C429.80,127.70 429.05,130.32 425.00,131.63 C418.42,133.75 413.42,134.21 412.25,132.80 ZM 446.80 125.26 C444.60,122.73 443.69,114.50 445.45,113.04 C446.21,112.41 449.88,111.42 453.60,110.84 C461.83,109.56 463.00,110.54 463.00,118.72 C463.00,124.77 462.46,125.21 453.42,126.37 C449.27,126.90 448.05,126.70 446.80,125.26 ZM 481.69 121.55 C479.95,119.81 479.20,109.58 480.75,108.69 C482.29,107.81 495.54,107.02 496.63,107.74 C498.45,108.97 499.32,118.21 497.80,120.22 C495.81,122.83 483.96,123.81 481.69,121.55 ZM 503.50 540.41 C501.30,539.58 497.08,538.24 494.12,537.43 C491.16,536.62 488.42,535.76 488.03,535.52 C487.63,535.27 481.28,533.30 473.91,531.14 C466.53,528.97 453.52,525.10 445.00,522.53 C436.48,519.97 425.77,516.76 421.22,515.39 C416.66,514.03 413.16,512.55 413.44,512.10 C413.72,511.65 417.44,510.98 421.72,510.60 C431.45,509.75 473.21,505.12 478.23,504.33 C480.28,504.01 482.38,503.24 482.89,502.63 C483.40,502.01 486.13,496.10 488.96,489.50 C500.71,462.04 510.25,440.96 511.19,440.38 C511.64,440.11 512.00,462.86 512.00,490.94 L 512.00 542.00 L 509.75 541.96 C508.51,541.93 505.70,541.24 503.50,540.41 ZM 356.65 377.25 C356.40,376.83 360.69,371.32 366.20,365.00 C371.72,358.67 380.11,349.02 384.86,343.54 C389.61,338.06 395.30,331.63 397.50,329.26 L 401.50 324.94 L 427.28 325.22 L 453.07 325.50 L 444.83 335.00 C440.30,340.23 429.89,352.04 421.70,361.25 L 406.81 378.00 L 381.97 378.00 C368.30,378.00 356.91,377.66 356.65,377.25 ZM 456.51 377.01 C456.17,376.47 457.89,373.88 460.32,371.26 C462.75,368.64 468.06,362.61 472.12,357.86 C476.18,353.11 484.23,343.79 490.00,337.15 L 500.50 325.07 L 526.95 325.03 L 553.39 325.00 L 550.35 328.25 C548.68,330.04 542.42,337.12 536.45,344.00 C530.47,350.88 521.31,361.34 516.09,367.25 L 506.60 378.00 L 481.86 378.00 C466.65,378.00 456.88,377.62 456.51,377.01 ZM 555.73 377.40 C555.40,377.07 563.99,366.82 574.82,354.61 C585.64,342.41 595.85,330.74 597.50,328.69 L 600.50 324.95 L 626.79 325.22 L 653.07 325.50 L 639.41 341.00 C631.90,349.52 621.50,361.34 616.29,367.25 L 606.82 378.00 L 581.58 378.00 C567.69,378.00 556.06,377.73 555.73,377.40 ZM 656.60 377.16 C656.31,376.69 662.17,369.38 669.61,360.91 C677.06,352.43 687.05,340.92 691.82,335.33 L 700.50 325.16 L 726.82 325.08 L 753.15 325.00 L 751.32 327.29 C750.32,328.55 739.84,340.48 728.04,353.79 L 706.57 378.00 L 681.84 378.00 C668.24,378.00 656.88,377.62 656.60,377.16 ZM 264.31 361.99 C259.46,360.04 257.02,352.86 259.46,347.72 C264.15,337.83 279.03,341.23 278.98,352.17 C278.94,360.30 271.87,365.03 264.31,361.99 ZM 315.00 361.25 C307.89,357.70 307.34,346.94 314.09,343.45 C323.99,338.34 333.05,346.86 329.01,357.48 C328.42,359.02 326.58,360.69 324.54,361.55 C320.11,363.40 319.25,363.37 315.00,361.25 ZM 265.42 289.58 C261.54,287.89 258.00,283.47 258.00,280.32 C258.00,274.62 263.57,268.99 269.20,269.00 C273.27,269.01 277.79,272.58 279.06,276.79 C280.50,281.62 278.55,286.08 273.70,289.04 C269.96,291.32 269.49,291.35 265.42,289.58 ZM 378.00 242.93 C366.17,235.26 353.01,226.88 348.75,224.30 C344.49,221.73 341.00,219.35 341.00,219.03 C341.00,218.26 386.97,204.99 389.54,205.02 C390.62,205.03 398.92,209.80 408.00,215.62 C417.08,221.44 426.43,227.39 428.79,228.85 C431.15,230.31 436.77,233.83 441.27,236.69 L 449.46 241.88 L 446.60 242.96 C443.99,243.96 404.48,255.71 401.00,256.53 C400.17,256.72 389.83,250.60 378.00,242.93 ZM 485.50 222.99 C480.55,219.75 474.13,215.61 471.24,213.80 C448.99,199.86 436.03,191.39 436.02,190.75 C436.01,190.34 436.54,190.00 437.19,190.00 C437.85,190.00 448.18,187.07 460.15,183.50 C472.12,179.93 482.84,177.00 483.97,177.00 C485.10,177.00 488.39,178.51 491.27,180.36 C496.22,183.55 517.64,197.14 535.78,208.61 C540.33,211.49 543.71,214.06 543.28,214.32 C542.39,214.87 495.55,229.03 494.92,228.95 C494.69,228.92 490.45,226.24 485.50,222.99 ZM 564.50 184.90 C550.75,176.09 537.26,167.51 534.53,165.82 L 529.56 162.75 L 539.53 159.85 C545.01,158.25 555.41,155.16 562.64,152.97 C569.87,150.79 577.03,149.00 578.55,149.00 C580.17,149.00 584.66,151.14 589.41,154.17 C593.86,157.01 602.67,162.57 609.00,166.52 C631.83,180.77 638.23,185.17 637.37,186.03 C636.72,186.68 606.34,196.14 591.00,200.47 C590.17,200.71 578.25,193.70 564.50,184.90 ZM 671.94 164.70 C655.55,154.01 651.75,151.58 638.01,143.05 C631.68,139.12 626.18,135.58 625.78,135.18 C625.10,134.50 633.02,131.94 662.53,123.28 L 674.55 119.75 L 703.46 138.17 C719.36,148.30 732.51,157.03 732.69,157.56 C732.86,158.09 729.97,159.38 726.25,160.42 C722.54,161.47 712.53,164.43 704.00,167.01 C695.47,169.59 687.60,171.97 686.50,172.30 C685.07,172.73 680.95,170.58 671.94,164.70 Z" fill="rgb(253,253,253)"/>
</g>
</svg>